<svg viewBox="0 0 376.86 485.76" xmlns="http://www.w3.org/2000/svg" xmlns:xlink="http://www.w3.org/1999/xlink" id="eb95f9d5-370b-4ec0-97ac-4cf8d3d42ad4" overflow="hidden"><g id="a790413a-5251-47f1-be39-47e651176c37"><path d="M238.29 516.36C230.14 513.03 226.42 505.94 223.45 498.41 218.647 485.996 215.884 472.887 215.27 459.59 213.98 435.72 218.79 412.86 228.27 390.97 229.035 389.474 228.998 387.693 228.17 386.23 222.66 375.85 215.17 367.1 206.56 359.18 205.11 357.85 203.87 358.37 202.43 359.09 191.919 364.408 180.538 367.796 168.83 369.09 156.087 370.392 143.216 369.509 130.77 366.48 129.188 366.228 127.634 365.823 126.13 365.27 121.33 363.07 116.65 364.03 111.68 364.86 103.59 366.22 95.32 367.67 87.19 367.37 68.39 366.67 50.64 361.8 35.68 349.69 25.17 341.19 18.98 330.21 18.87 316.37 18.79 307.61 22.81 300.68 29.33 295.16 36.03 289.48 44.13 287.38 52.67 286.92 66.2094 285.991 79.6541 289.768 90.73 297.61 91.641 298.225 92.3891 299.052 92.91 300.02 92.1262 300.115 91.3338 300.115 90.55 300.02 85.99 298.81 81.38 297.74 76.93 296.21 69.26 293.59 61.42 292.08 53.36 292.75 41.7 293.75 32.01 298.85 25.01 308.27 20.21 314.72 22.01 321.59 25.47 327.95 29.47 335.23 35.69 340.4 42.85 344.4 55.77 351.63 69.79 355.33 84.46 356.4 90.46 356.84 96.57 356.45 102.63 356.4 103.306 356.316 103.975 356.179 104.63 355.99 104.199 355.362 103.721 354.767 103.2 354.21 96.36 348.06 98.2 340.4 103.14 334.88 107.9 329.57 114.26 326.88 120.88 324.83 133.08 320.97 145.45 321.3 157.88 323.5 163.97 324.57 163.97 324.5 167.17 319.3 174.38 307.54 178.08 294.57 179.53 281.03 180.513 271.595 181.003 262.116 181 252.63 181 244.34 180.07 236.05 179.62 227.75 179.48 225.08 178.42 223.8 175.62 223.09 160.45 219.17 146.39 212.76 134 203 116.84 189.53 106.55 171.91 102.52 150.52 97.45 123.64 102.89 99 119 77 131.18 60.29 147.79 49.78 167.55 44.1 179.179 40.7939 191.221 39.1674 203.31 39.27 214.98 39.32 226.65 39.47 238.31 39.8 250.21 40.14 262.11 40.57 273.99 41.29 293.05 42.43 312.09 44.45 331.21 43.5 351.14 42.5 370.91 40.34 389.73 33.02 391.73 32.24 393.73 31.44 395.73 30.65L395.73 32C391.34 42.29 382.73 48 373.09 52.36 359.771 58.5702 345.303 61.9319 330.61 62.23 318.73 62.42 306.82 62.05 294.96 61.29 280.22 60.34 265.51 58.83 250.81 57.37 231.16 55.43 211.49 53.47 191.73 54.27 182.868 54.5508 174.048 55.6048 165.37 57.42 156.37 59.37 148.51 64.26 141.05 69.58 122.9 82.52 112.48 100.21 109.9 122.25 107.29 144.5 113.32 164.58 126.9 182.31 139.29 198.52 156.06 208.38 175.23 214.51 176.05 214.77 176.91 214.89 178.23 215.16 178.06 212.97 177.95 211.16 177.75 209.25 176.54 197.97 175.08 186.72 174.12 175.42 172.21 152.81 174.23 130.69 183.12 109.53 186.474 101.206 191.162 93.485 197 86.67 197.626 86.0659 198.294 85.5078 199 85L199.5 85.34 196.5 93.26C192.975 102.868 190.787 112.916 190 123.12 189.11 133.78 188.42 144.5 188.59 155.18 188.8 168.43 189.89 181.66 190.77 194.89 191.24 201.98 192.15 209.04 192.69 216.13 192.84 218.07 193.69 218.9 195.44 219.02 202.84 219.57 210.25 220.02 217.66 220.62 219.57 220.76 220.12 219.68 220.45 218.09 222.517 208.115 226.493 198.635 232.16 190.17 233.534 187.915 235.075 185.765 236.77 183.74 238.352 182.011 239.056 179.653 238.68 177.34 237.871 167.776 238.069 158.153 239.27 148.63 240.7 135.63 242.48 122.76 245.87 110.14 248.04 102.07 250.7 94.2 255.67 87.34 256.882 85.8257 258.174 84.377 259.54 83L260.24 83.42C260.107 84.0386 259.93 84.6468 259.71 85.24 254.56 96.11 252.43 107.63 251.71 119.57 250.71 134.65 252.38 149.57 253.33 164.57 253.412 164.999 253.529 165.42 253.68 165.83 254.468 165.506 255.236 165.135 255.98 164.72 265.56 158.62 275.83 154.37 287.2 153.18 294.59 152.41 301.58 153.6 307.58 158.37 311.416 161.192 313.31 165.954 312.46 170.64 311.23 179.26 307.01 186.45 301.72 193.09 291 206.48 277.34 215.81 261.45 222 259.8 222.64 259.11 223.24 259.33 225.24 260.41 235.08 261.87 244.94 262.04 254.81 262.17 262.81 261.04 270.92 259.79 278.81 257.463 292.492 252.643 305.629 245.57 317.57 244.79 318.614 244.79 320.046 245.57 321.09 250.727 329.018 257.176 336.025 264.65 341.82 265.749 342.909 267.509 342.945 268.65 341.9 284.146 331.133 301.826 323.915 320.43 320.76 329.61 319.18 338.87 318.76 348.11 320.46 354.11 321.59 359.81 323.4 364.38 327.6 371.64 334.26 371.79 339.92 366.51 346.6 361.36 353.16 354.15 356.6 346.57 359.34 336.872 362.93 326.672 364.978 316.34 365.41 311.07 365.59 305.7 364.35 300.46 363.33 289.593 361.261 279.128 357.466 269.46 352.09 268.58 351.75 267.59 351.854 266.8 352.37 258.01 359.76 250.48 368.37 243.32 377.29 242.406 378.238 242.38 379.731 243.26 380.71 254.638 397.75 261.912 417.196 264.51 437.52 267.25 458.4 266.43 479.04 258.43 498.89 256.43 503.81 253.96 508.52 249.93 512.1 247.921 513.656 245.798 515.06 243.58 516.3ZM176.29 327.2C176.628 327.412 176.982 327.596 177.35 327.75 189.555 331.427 200.988 337.297 211.09 345.07 212.38 346.07 213.4 345.66 214.52 344.81 222.715 338.515 229.702 330.787 235.14 322 236.14 320.4 235.89 319.22 235.14 317.62 232.2 311.62 229.09 305.62 226.75 299.34 220.35 282.14 218.08 264.19 218.14 245.91 218.14 241.04 218.39 236.17 218.6 231.31 218.67 229.59 218.04 228.92 216.27 228.81 209.66 228.4 203.04 227.93 196.45 227.27 194.45 227.07 194.05 227.85 194.26 229.51 194.47 231.17 194.74 232.99 194.94 234.74 196.32 246.74 198.57 258.69 197.7 270.97 196.76 286.753 192.044 302.079 183.95 315.66 181.59 319.56 178.91 323.24 176.27 327.2ZM232.51 394.43C232.136 394.845 231.802 395.294 231.51 395.77 228.99 403.09 225.95 410.28 224.08 417.77 221.003 430.451 219.963 443.542 221 456.55 221.9 469.14 223.79 481.55 228.17 493.37 230.142 498.33 232.562 503.099 235.4 507.62 237.18 510.62 239.48 510.8 242.4 508.93 243.644 508.215 244.721 507.244 245.56 506.08 247.366 503.361 248.878 500.458 250.07 497.42 254.46 484.72 254.07 471.65 252.5 458.54 250.5 442.49 246.04 427.08 240.07 412.1 237.73 406.33 235.16 400.66 232.49 394.43ZM300.28 175.43C300.28 170.34 299.16 165.8 294.71 162.58 290.58 159.547 285.338 158.453 280.34 159.58 270.54 161.51 262.64 167.07 255.17 173.35 254.64 173.911 254.352 174.658 254.37 175.43 254.42 177.26 254.72 179.08 254.91 180.91 255.91 190.91 257.02 200.91 258.01 210.91 258.3 213.79 258.3 213.91 260.96 212.97 271.3 209.36 281.08 204.63 289.2 197.13 295.49 191.33 300.24 184.54 300.26 175.41ZM273 347.25C274.41 348.06 275.13 348.51 275.88 348.9 291.67 357 308.48 359.49 325.88 357.3 335.71 356.075 344.99 352.084 352.64 345.79 358.42 341.09 357.9 335.54 351.21 332.23 348.921 331.113 346.498 330.297 344 329.8 337.325 328.464 330.474 328.254 323.73 329.18 309.63 331.08 295.96 334.54 283.23 341.08 279.91 342.8 276.78 345 273 347.25ZM239.47 311.55 240.42 311.43C240.71 310.89 241.03 310.36 241.27 309.81 246.18 298.41 248.27 286.4 248.75 274.09 249.114 261.699 248.445 249.3 246.75 237.02 246.32 233.66 245.75 230.31 245.26 227.11 239.38 227.59 233.89 227.99 228.42 228.57 227.618 228.91 227.037 229.625 226.87 230.48 226.42 235.25 226 240.04 225.87 244.82 225.42 261.08 226.96 277.11 232.18 292.6 234.4 299 237.06 305.24 239.49 311.55ZM261.59 347.16C253.456 341.34 246.311 334.25 240.43 326.16 240.173 326.309 239.932 326.483 239.71 326.68 233.684 334.96 226.562 342.384 218.54 348.75 217.06 349.92 217.86 350.64 218.75 351.61 222.897 356.15 227.013 360.713 231.1 365.3 233.36 367.82 235.56 370.38 237.97 373.12 244.532 363.353 252.498 354.605 261.61 347.16ZM130.87 359.49C153.682 365.623 177.916 363.644 199.43 353.89 198.55 353.13 198.13 352.68 197.63 352.34 188.611 346.095 178.694 341.26 168.22 338 166.834 337.536 165.304 337.964 164.36 339.08 155.81 346.97 145.89 352.72 135.36 357.55 133.9 358.26 132.38 358.85 130.87 359.49ZM154.68 334.56C141.78 332.68 129.58 331.82 117.43 335.01 113.61 336.01 109.95 337.39 107.03 340.21 104.11 343.03 103.5 345.73 105.03 348.55 106.98 352.13 111.96 355.11 115.03 354.14 122.17 351.86 129.4 349.73 136.3 346.84 143.117 343.888 149.344 339.728 154.68 334.56ZM228.49 220.24C233.02 219.62 237.08 219.01 241.16 218.52 243.25 218.27 243.95 217.52 243.56 215.25 242.38 208.42 241.45 201.54 240.4 194.69 240.24 193.6 239.98 192.52 239.76 191.44 233.78 200.17 230.36 209.61 228.49 220.24Z" transform="translate(-18.87 -30.6)"/><path d="M360.09 249.34C359.326 246.564 358.741 243.741 358.34 240.89 357.34 229.12 356.48 217.33 355.85 205.53 355.05 190.46 354.59 175.36 353.85 160.29 353.23 147.6 352.31 134.94 351.78 122.29 351.492 117.454 352.726 112.649 355.31 108.55 358.99 102.81 364.31 102.83 367.76 108.72 370.417 113.398 371.549 118.788 371 124.14 370.55 129.63 370.21 135.14 369.91 140.64 369.097 155.873 368.31 171.107 367.55 186.34 367.04 196.23 366.72 206.13 365.97 216.01 365.23 225.64 364.09 235.24 362.97 244.84 362.641 246.4 362.159 247.924 361.53 249.39Z" transform="translate(-18.87 -30.6)"/><path d="M369.08 278.27C369.08 283.47 366.22 286.5 361.27 286.5 356.92 286.5 353.8 283.1 353.77 278.34 353.77 273.9 356.55 271.15 361.19 271.08 366.14 271 369.07 273.68 369.08 278.27Z" transform="translate(-18.87 -30.6)"/></g></svg>