<svg viewBox="0 0 261.94 397.96" xmlns="http://www.w3.org/2000/svg" xmlns:xlink="http://www.w3.org/1999/xlink" id="e6ea4de6-b2f4-4ac0-a194-ffb099adc274" overflow="hidden"><path d="M250.87 59 250.87 59C248.101 60.3701 246.422 63.2662 246.61 66.35L252.25 173C252.293 173.737 252.739 174.391 253.41 174.7L253.69 174.82C254.067 174.986 254.486 175.031 254.89 174.95L254.89 174.95C255.764 174.759 256.405 174.012 256.46 173.12L261.92 66.36C262.112 63.2726 260.433 60.3715 257.66 59L257.66 59C255.521 57.9405 253.009 57.9405 250.87 59Z"/><circle cx="254.27" cy="192.44" r="5.85"/><path d="M198.55 277.18C175.27 264.81 145.15 266.35 123.33 281.18 120.46 283.18 116.99 285.41 113.78 284.07 109.25 282.18 110.03 275.64 111.31 270.89 118.279 244.749 115.931 216.998 104.67 192.4 102.44 187.56 99.92 181.67 102.94 177.28 104.648 175.089 107.176 173.691 109.94 173.41 119.65 171.98 129.47 181.07 128.78 190.86 128.48 195.09 126.97 200.35 130.42 202.86 133.5 205.06 137.73 202.74 140.52 200.19 151.123 190.384 157.463 176.815 158.18 162.39 158.264 157.473 157.475 152.581 155.85 147.94 159.38 149.22 168.17 146.31 168.25 146.29 168.81 146.05 169.38 145.83 169.96 145.61 173.86 144.11 178.04 142.8 181.25 140.36 190.341 149.954 196.805 161.73 200.02 174.55 201.58 180.83 202.22 187.94 198.68 193.36 195.14 198.78 186.01 200.56 182.34 195.23 179.88 191.66 183.92 185.07 187.34 187.68 188.2 188.33 188.71 189.39 189.61 189.99 192.08 191.64 195.5 188.2 194.61 185.37 193.72 182.54 190.31 181.22 187.36 181.51 179.36 182.3 174.74 192.85 178.61 199.88 182.48 206.91 192.43 209.18 199.61 205.66 206.79 202.14 211.2 194 211.58 186 211.96 178 208.94 170.11 204.58 163.35 197.82 152.78 187.75 142.35 190.01 130.01 190.94 124.91 194.23 120.66 195.41 115.62 196.59 110.58 194.16 103.74 189.08 102.62 183.26 101.39 178.9 108.35 178.68 114.3 178.46 120.25 180.32 126.44 178.27 132.02 176.22 137.6 170.63 141.2 164.96 143.07 163.607 143.652 162.103 143.782 160.67 143.44 158.67 142.76 157.6 140.55 156.8 138.55 155.23 134.6 153.56 130.47 150.29 127.76 147.02 125.05 141.61 124.39 138.75 127.53 135.89 130.67 136.96 135.82 139.44 139.25 141.92 142.68 145.54 145.17 148.11 148.54 153.18 155.17 153.54 164.47 151.11 172.44 148.68 180.41 142.66 187.37 137.86 194.19 137.86 178.79 122.67 165.64 107.6 168.83 104.6 169.47 100.92 170.43 98.91 168.11 97.83 166.86 97.7 165.11 97.65 163.43 96.959 139.982 101.144 116.646 109.94 94.9 100.7 101.14 90.85 106.84 79.99 109.38 69.13 111.92 57.05 111 47.83 104.69 38.61 98.38 33.14 86.2 36.61 75.6 39.61 66.29 48.7 59.98 58.16 57.42 67.62 54.86 77.6 55.42 87.39 55.72 92.94 55.9 98.54 55.99 104.16 55.94 136.55 55.64 170.48 51.83 197.27 34.22 205.49 28.81 208.27 23.29 209.89 16.02 211.51 8.75 206.47-0.28 199 0 206 4.24 206.32 15.08 201.58 21.79 196.84 28.5 188.8 31.94 181 34.52 150.78 44.52 118.56 46.7 86.74 47.83 70.07 48.43 51.5 49.56 40.05 61.69 27 75.5 30.13 100.3 45 112.12 59.87 123.94 82.94 122.46 97.7 110.53L92.41 165.53C92.1504 169.932 91.4059 174.292 90.19 178.53 88.19 184.68 84.19 189.97 81.19 195.67 66.96 222.14 74.34 258.28 97.79 277.06 99 278.06 100.36 279.15 100.47 280.7 100.73 284.49 94.76 284.3 91.32 282.7 77.47 276.21 62.45 271.54 47.15 271.83 32.86 272.11 17.62 277.03 7.58 287.11L0 294.27 6.45 297.69C6.75 297.9 7.07 298.09 7.38 298.27 7.95 298.6 8.52 298.91 9.1 299.27L9.41 299.44C34.32 312.82 66.48 311.68 90.29 296.38 91.5906 295.383 93.1029 294.699 94.71 294.38 98.57 293.95 101.56 298.25 101.43 302.13 101.3 306.01 99.12 309.48 97.28 312.9 92.2901 322.298 89.5192 332.715 89.18 343.35 88.7545 354.559 90.8635 365.719 95.35 376 96.7327 379.113 98.3402 382.121 100.16 385L100.1 385 100.45 385.49C101.52 387.16 109.33 398.05 109.33 398.05L114.94 389.9C115.13 389.66 115.31 389.41 115.47 389.17 130.94 366.67 131.71 334.99 117.37 311.75 114.16 306.55 110.65 298.84 115.66 295.35 118.84 293.13 123.15 294.7 126.75 296.14 141.86 302.14 158.97 304.37 174.97 300.93 181.918 299.474 188.554 296.799 194.57 293.03 199.01 290.21 202.85 286.61 206.8 283.16 204.387 280.739 201.602 278.72 198.55 277.18ZM187.17 109.94C187.69 108.94 188.38 107.74 189.61 107.88 194.82 108.46 190.61 126.02 185.87 125.39 184.75 125.06 184.59 123.86 184.46 122.79 183.99 118.328 184.938 113.832 187.17 109.94ZM150.17 142.69C149.587 143.096 148.847 143.207 148.17 142.99 147.811 142.872 147.473 142.696 147.17 142.47 145.117 140.968 143.411 139.041 142.17 136.82 141.537 135.877 141.149 134.791 141.04 133.66 141.04 132.57 141.85 131.37 143.1 131.66 143.584 131.811 144.024 132.079 144.38 132.44 147.08 134.83 149.38 137.32 150.31 140.92 150.58 141.497 150.515 142.175 150.14 142.69ZM90.27 292.13C82.3174 297.651 73.2513 301.361 63.71 303 59.3842 303.651 55.0144 303.965 50.64 303.94 37.01 304.34 24.54 300.42 12.82 293.75 10.33 292.34 10.18 291.84 11.9 289.5 14.84 285.5 18.96 282.92 23.35 280.88 32.6945 276.462 43.0644 274.668 53.35 275.69 66.5886 277.025 79.2851 281.641 90.29 289.12 92 290.25 91.84 291 90.27 292.13ZM82.49 238.32C81.1654 233.596 80.4397 228.725 80.33 223.82 80.2294 216.008 81.544 208.243 84.21 200.9 86.3597 195.435 89.0391 190.193 92.21 185.25 97.7 176 104 209.27 106 218.53 108.09 228.66 110 238.79 109.55 249.68 110.11 257.588 108.897 265.521 106 272.9 105.41 274.39 104.92 274.76 103.69 273.52 93.79 263.48 86.21 252.06 82.49 238.32ZM101.12 290.6C100.378 289.845 100.378 288.635 101.12 287.88L104.58 284.31C105.369 283.537 106.635 283.549 107.408 284.338 107.416 284.345 107.423 284.352 107.43 284.36L111.17 288.46C111.78 289.159 111.83 290.186 111.29 290.94L108.41 294.82C107.738 295.697 106.483 295.863 105.606 295.192 105.537 295.139 105.472 295.081 105.41 295.02ZM121 343.12C121.405 351.043 120.562 358.98 118.5 366.64 117.519 370.619 116.263 374.525 114.74 378.33 113.67 380.89 111.4 387.33 108.09 387.4 105.6 387.4 104.62 385.34 103.61 383.47 99.25 375.41 95.61 367.47 94.12 358.34 91.12 340.02 94.91 323.25 104.97 307.76 106.29 305.76 107.05 306.05 108.24 307.76 112.753 314.053 116.22 321.033 118.51 328.43 119.895 333.216 120.73 338.145 121 343.12ZM196.9 285.23C188.2 291.51 178.84 296.37 168.19 298.29 165.316 298.623 162.423 298.77 159.53 298.73 146.9 298.93 135.46 294.73 124.37 289.26 122.37 288.26 123.54 287.6 124.53 286.94 131.358 282.301 138.892 278.799 146.84 276.57 157.42 273.71 168.08 272.96 178.84 275.57 185.142 277.132 191.216 279.501 196.91 282.62 198.45 283.49 198.25 284.22 196.86 285.23Z"/></svg>