<svg viewBox="0 0 281.81 363.75" xmlns="http://www.w3.org/2000/svg" xmlns:xlink="http://www.w3.org/1999/xlink" id="Calque_1" xml:space="preserve" overflow="hidden"><path d="" stroke="#E30613" stroke-width="0.25" stroke-miterlimit="10" fill="none"/><g><path d=""/><path d="M130.7 115.2C130.69 115.21 130.65 115.29 130.65 115.3 129.06 118.35 127.51 121.41 126 124.47 121.49 120.8 116.38 119.77 114.07 119.3 106.94 117.87 101.2 119.65 97.24 120.87 95.39 121.44 90.47 123.09 84.52 127.2 83.75 127.73 83.01 128.27 82.29 128.83 81.34 127.47 80.45 126.01 79.63 124.4 77.98 121.19 74 113.2 75.13 102.49 75.38 100.12 76.54 91.31 83.15 83.12 89.41 75.36 97.08 72.45 107.02 68.84 110.27 67.66 118.37 64.87 136.17 62.19 144.88 60.88 161.83 58.72 178.43 57.89 181.34 57.74 188.52 57.43 197.9 55.54 200.61 55 203.8 54.35 207.88 53.09 212.44 51.69 221.74 48.75 231.46 41.64 236.49 37.96 239.95 34.39 242.32 31.96 244.44 29.78 243.68 30.36 251.03 21.88 254.35 18.05 257.14 13.8 260.42 9.95 261.66 8.49 263.98 5.81 263.75 2.42 263.7 1.72 263.61 0.38 262.87 0.07 261.31-0.58 258.3 4.02 253.97 9.36 253.97 9.36 250.79 13.28 244.19 20.12 240.2 24.25 233.99 30.6 224.43 35.97 220.82 38 215.42 40.98 207.8 42.62 204.79 43.27 202.33 43.51 197.43 43.99 189.56 44.76 183.63 44.92 181.97 44.97 168.5 45.38 155.93 47.26 148.9 48.3 135.54 50.27 126.13 52.56 122.1 53.58 110.92 56.43 105.34 57.85 98.23 61.41 91.42 64.82 83.82 68.63 77.3 77.06 74.93 80.13 68.34 89.44 67.52 102.89 66.94 112.25 69.41 119.31 71.04 123.82 71.97 126.4 73.4 130.25 76.01 134.53 69.7 141.16 65.93 148.3 63.15 153.69 60.56 158.71 56.72 166.33 55 177.23 53.28 188.12 54.57 196.6 55 199.14 56.67 208.91 60.14 215.7 62.83 220.86 68.79 232.29 75.77 239.57 79.66 243.56 84.81 248.85 89.21 252.24 95.21 256.86 96.7 258.01 97.9 258.89 98.88 259.59 98.53 260.4 98.19 261.19 97.86 261.95 95.31 267.79 93.95 270.88 91.6 274.86 84.75 286.46 76.31 293.94 71.45 297.75 61.89 305.23 52.99 308.75 50.52 309.68 45.48 311.58 40.73 312.74 36.95 313.66 36.95 313.66 32.11 314.84 25.41 315.81 24.6 315.93 21.99 316.3 18.56 316.27 15.19 316.24 13.95 315.85 13.47 315.68 12.38 315.3 9.38 314.26 8.45 311.96 6.96 308.27 11.6 303.27 14.12 301.26 14.12 301.26 17.32 298.71 22.66 297.02 23.29 296.82 23.89 296.66 23.89 296.66 24.25 296.57 25.1 296.35 26.45 296.13 27.25 296 27.69 295.95 28.28 295.88 28.8 295.81 29.54 295.71 33.56 294.93 34.86 294.68 34.56 294.73 36.27 294.4 39.27 293.82 39.91 293.71 41.12 293.43 42.27 293.16 42.77 293.01 44.1 292.65 47.95 291.61 49.67 291.32 53.2 290.25 55.98 289.4 56.95 288.96 57.42 287.95 57.82 287.08 57.85 285.81 57.22 285.28 56.15 284.37 53.26 285.71 51.22 286.65 51.2 286.66 51.24 286.64 51.22 286.65 49.36 287.51 48.07 287.91 43.92 289.13 43.21 289.34 42.86 289.44 42.82 289.45 38.96 290.54 35.81 290.96 34.85 291.08 32.4 291.41 25.65 292.31 19.69 293.57 11.58 295.29 8.98 296.81 8.05 297.39 5.8 298.79 3.07 300.52 1.4 303.99 1.12 304.56-1.25 309.68 0.96 314.85 2.97 319.56 7.57 321.51 9.62 322.38 26.35 329.48 53.54 314.37 58.14 311.81 76.55 301.58 87.3 289.43 89.44 286.96 96.37 278.98 101.34 270.89 104.85 263.84 107.14 265.36 110.35 267.29 114.19 270.23 116.12 271.71 117.76 273.14 121.04 276 122.08 276.91 125.32 279.76 131.02 285.2 134.72 288.73 136.99 290.9 138.75 292.68 136.95 296.75 135.31 301.11 133.86 305.94 130.87 315.87 130.21 322.68 129.56 329.81 128.58 340.54 129.42 345.31 130.73 349.18 132.08 353.15 133.85 358.39 139.14 361.51 145.6 365.31 152.5 363.12 153.23 362.88 160.89 360.32 164.02 352.98 165.56 349.38 169.58 339.97 167.72 331.14 166.54 325.51 164.68 316.65 161.09 310.55 158.32 305.94 154.83 300.13 151.17 295.7 146.57 290.89 148.32 287.39 149.87 284.64 150.88 282.86 151.27 282.18 152.5 280.02 154.22 277.24 157.93 271.26 161.21 266.75 163.79 263.3 163.95 263.09 164.1 262.89 164.26 262.68 166.9 270.79 169.78 276.59 171.23 279.35 173.66 283.98 176.99 290.21 183.16 296.96 187.36 301.55 190.31 304.78 195.29 307.33 206.12 312.89 217.21 310.45 220.53 309.68 232.14 306.96 239.08 299.85 243.42 295.4 252.17 286.44 255.91 276.78 257.51 271.53 258.63 267.84 261.15 258.25 259.47 246.1 258.75 240.93 257.56 232.99 252.04 224.77 249.45 220.93 245.52 215.07 237.95 211.86 230.29 208.6 223.14 209.86 217.9 210.78 216.32 211.06 210.75 212.12 202.54 216.26 193.2 220.97 186.48 226.62 181.21 231.62 179.71 233.04 178.29 234.46 176.92 235.87 175.34 222.62 174.6 212.57 174.36 209.31 172.76 187.21 171.18 156.1 170.25 145.33 170.23 145.04 170.13 144 170.02 142.58 169.81 140 169.38 134.58 169.08 128.02 168.82 122.36 168.96 122.53 168.69 117.94 168.47 114.24 168.38 114.25 168.1 109.92 168.05 109.1 168.01 108.51 167.98 107.96 167.89 106.18 167.83 104.84 167.81 104.32 167.72 101.96 167.63 100.57 167.51 98.08 167.16 91.05 166.99 87.53 166.92 83.41 166.87 80.42 166.9 78.7 166.4 76.07 165.81 72.95 165.27 70.13 163.66 69.61 162.93 69.37 161.6 69.49 155.67 76.16 152.79 79.4 150.21 82.32 147.13 86.92 146.31 88.14 145.72 89.08 145.41 89.57 140.44 97.47 140.79 96.88 140.19 97.87 138.78 100.22 137.46 102.67 134.81 107.55 133.06 110.73 131.67 113.37 130.7 115.2ZM95.48 248.83C91.65 246.17 84.71 241.24 77.48 232.4 74.34 228.55 69.51 222.56 65.74 213.42 59.87 199.2 60.46 186.86 60.65 183.88 60.99 178.63 62.32 168.16 68.48 157.08 72.12 150.52 76.08 146.23 79.31 142.73 79.83 142.16 80.33 141.62 80.82 141.1 81.32 141.67 81.83 142.23 82.38 142.8 84.29 144.78 88.82 149.11 95.88 152.58 103.82 156.48 110.62 157.15 112.12 157.28 113.29 157.38 114.45 157.48 115.58 157.55 115.05 161.01 114.51 164.9 113.88 169.41 112.75 177.48 112.15 183.55 111.14 193.87 109.92 206.31 109.81 211.05 108.4 222.44 107.31 231.25 106.74 235.75 105.53 240.57 104.4 245.04 103.07 249.04 101.7 252.64 99.81 251.67 97.81 250.45 95.48 248.83ZM115.96 256.2C114.92 256.14 113.27 256.04 111.25 255.7 111.1 255.28 110.96 254.85 110.85 254.4 110.33 252.28 111.67 248.03 114.37 239.63 115.47 236.22 115.79 235.39 116.62 234.35 118.81 231.6 122.48 229.95 126.21 230.05 127.35 230.08 131.27 230.35 134.43 233.57 134.87 234.02 138.01 237.34 137.76 242.28 137.54 246.56 134.92 249.27 133.46 250.79 130.57 253.79 127.36 254.91 125.93 255.39 122.4 256.55 119.55 256.4 115.96 256.2ZM151.83 308.7C154.75 313.16 157.83 317.94 160.05 324.94 161.67 330.05 162.95 334.1 162.01 339.42 161.81 340.53 160.64 346.62 155.55 351.55 153.58 353.46 151.32 355.65 148.12 355.66 144.41 355.67 141.77 352.76 140.49 351.36 136.39 346.84 135.73 341.42 135.21 336.69 134.32 328.59 135.65 322.28 136.78 317.12 138.26 310.36 140.2 305.53 142.06 300.88 142.5 299.79 142.94 298.73 143.39 297.7 145.88 300.53 148.82 304.11 151.83 308.7ZM184.5 237.97C192.49 229.86 197.61 226.36 199.76 224.96 204.15 222.09 208.05 219.59 213.85 218.11 217.63 217.15 224.99 215.27 232.63 218.5 239.07 221.22 242.41 226.17 244.76 229.65 252.91 241.73 252.01 254.97 251.61 259.78 251.43 262 250.64 269.81 246.33 278.76 243.88 283.85 240.88 290.08 234 295.19 231.79 296.83 224.34 302.21 213.75 302.04 210.98 301.99 203.64 301.87 197.41 296.86 194.43 294.46 192.93 291.93 190.46 287.66 186.88 281.47 185.04 276 183.71 271.52 180.08 259.32 178.65 249.46 178.43 247.85 178.29 246.88 178.16 245.92 178.03 244.97 180.06 242.64 182.13 240.38 184.5 237.97ZM151.89 129.19C151.99 133.21 152.22 139.03 152.22 142.98 152.22 142.98 152.22 142.99 152.22 142.99 152.37 147.54 152.4 148.17 152.48 150.91 152.67 157.01 152.78 161.38 152.8 162.17 152.92 166.55 153.34 175.79 156.13 206.97 157.31 220.19 157.82 225.1 158.28 229.27 159.67 241.8 160.4 248.23 161.77 253.99 158.11 259.08 155.14 263.78 152.6 267.81 148.74 273.96 145.1 279.8 141.84 286.15 140.66 284.98 139.43 283.77 138.12 282.48 132.85 277.3 130.38 275.48 125.01 270.25 123.18 268.47 121.2 266.48 118.38 264.27 120.3 264.04 121.77 263.69 122.56 263.5 123.51 263.27 127.54 262.23 132.11 259.46 134.26 258.16 136.94 256.53 139.48 253.43 140.98 251.6 143.96 247.97 144.37 242.47 144.73 237.64 142.93 234.06 142.22 232.69 141.46 231.23 139.03 226.7 133.51 224.18 132.35 223.65 128.14 221.8 123.04 222.81 120.53 223.31 118.4 224.39 116.6 225.73 117 223.95 117.18 222.95 117.36 221.64 117.57 220.16 117.33 221.56 118.27 210.8 118.91 203.5 119.25 200.31 119.42 198.67 119.77 195.23 120.08 192.81 120.5 189.55 121.65 180.59 122.88 171.21 125.59 159.42 125.97 157.74 126.2 156.86 126.37 156.2 127.34 155.73 128.26 155.12 129.11 154.34 133.06 150.7 133.43 145.3 133.61 142.6 133.71 141.06 133.79 137.39 132.27 133.29 132.75 132.21 133.3 131.1 133.95 129.93 133.95 129.93 133.95 129.93 133.95 129.93 135.07 128.06 138.34 120.52 142.95 114.82 144.73 112.62 146.79 110.13 148.44 110.61 149.41 110.9 149.87 112.1 150.43 113.64 151.53 116.66 151.54 119.22 151.57 121.17 151.66 124.83 151.71 121.69 151.89 129.19ZM117 127.72C119.92 128.69 121.75 129.93 122.89 130.98 122.08 132.74 121.33 134.43 120.72 135.94 119.1 139.91 117.99 143.98 117 149.12 112.77 149.63 108.43 148.43 107.09 148.07 105.13 147.53 102.42 146.51 97.31 142.72 93.64 140.01 90.28 137.52 87.29 134.63 89.58 132.65 91.94 131.05 94.9 129.68 97.24 128.59 106.93 124.39 117 127.72Z"/><path d=""/><path d="M272.95 250.06C274.35 254.4 275.09 254.7 275.31 254.71 275.33 254.71 275.34 254.71 275.35 254.71 276.31 254.67 276.93 252.82 277.21 251.97 278.18 248.99 278.09 245.71 278.09 238.37 278.09 238.37 278.09 238.37 278.09 238.37 277.97 234.1 278.04 229.82 277.89 225.55 277.83 223.79 277.84 223.82 277.81 221.79 277.78 219.7 277.59 209.67 277.56 208.07 277.47 203.3 277.56 204.38 277.49 184.41 277.48 179.69 277.46 177.57 277.44 175.07 277.38 168.6 277.31 166.92 277.29 163.24 277.25 157.35 277.42 155.82 277.49 148.66 277.57 140.01 277.5 132.46 277.49 129.09 277.45 116.69 277.37 118.58 277.36 109.72 277.36 105.35 277.16 100.98 277.23 96.61 277.34 89.18 277.73 85.29 275.34 80.96 273.58 77.76 271.58 76.63 270.84 76.26 270.37 76.03 266.75 74.27 263.41 75.87 260.2 77.4 259.26 80.94 258.52 83.7 257.51 87.47 257.89 90.07 258.52 97.59 258.82 101.11 258.98 104.64 259.3 108.16 259.98 115.46 260.46 122.77 261.06 130.07 261.53 135.75 262.38 146.04 263.21 157.27 264.05 168.55 263.98 168.74 265.36 187.99 266.44 202.99 266.78 207.07 267.32 212.25 267.74 216.31 267.59 214.41 269.47 230.64 269.89 234.04 270.29 237.01 270.64 239.44 271.09 242.51 271.62 245.92 272.95 250.06Z"/><path d=""/><path d="M272.9 268.2C270.37 269.41 269.67 272.22 269.18 274.17 268.28 277.76 269.23 280.63 269.47 281.31 270.12 283.13 270.93 285.42 273.19 286.3 275.14 287.06 277.3 286.43 278.67 285.42 280.51 284.07 280.93 282.05 281.41 279.75 281.74 278.18 282.28 275.38 281.02 272.32 280.46 270.96 279.66 269.01 277.6 268.11 275.3 267.1 273.09 268.12 272.9 268.2Z"/></g></svg>