<svg width="406.469" height="492.748" viewBox="0 0 406.469 492.748" xmlns="http://www.w3.org/2000/svg" xmlns:xlink="http://www.w3.org/1999/xlink" id="Ebene_1" xml:space="preserve" overflow="hidden"><defs id="defs4656"><clipPath id="SVGID_2_-7"><use width="100%" height="100%" xlink:href="#SVGID_1_" id="use10404" overflow="visible"></use></clipPath><rect x="0" y="0.014" width="406.457" height="492.734" id="rect10457"/></defs><g id="g4651"><g id="g4591"><g id="g4589"><g id="g4587"><g id="g4585"><path d="M203.086 1.565 404.925 1.565 404.925 298.233C404.925 404.827 314.644 491.28 203.222 491.28 91.816 491.28 1.511 404.827 1.511 298.233L1.511 1.565Z" id="path4583" fill="#FFFFFF"/></g></g></g></g><g id="g4601"><g id="g4599"><g id="g4597"><g id="g4595"><path d="M274.115 1.748 274.115 479.007C350.279 451.623 404.529 381.469 404.92 299.102L404.92 1.746Z" id="path4593" fill="#E8423F"/></g></g></g></g><g id="g4611"><g id="g4609"><g id="g4607"><g id="g4605"><path d="M1.52 1.756 1.52 298.233C1.52 383.694 59.551 456.155 139.95 481.546L139.95 1.757Z" id="path4603" fill="#16A74E"/></g></g></g></g><g id="g4621"><g id="g4619"><g id="g4617"><g id="g4615"><path d="M346.365 12.526 332.332 12.526 332.332 59.955 285.99 59.955 285.99 73.998 332.332 73.998 332.332 119.877 346.365 119.877 346.365 73.998 393.559 73.998 393.559 59.955 346.365 59.955Z" id="polygon4613" fill="#FFFFFF"/></g></g></g></g><g id="g4649"><g id="g4647"><g id="g4645"><g id="g4643"><g id="g4641"><g id="g4639"><g id="g4637"><g id="g4635"><g id="g4633"><g id="g4631"><defs id="defs4624"><rect x="0" y="0.014" width="406.457" height="492.734" id="SVGID_1_"/></defs><clipPath id="SVGID_2_"><use width="100%" height="100%" xlink:href="#SVGID_1_" id="use4626" overflow="visible"></use></clipPath><path d="M203.086 1.533 404.925 1.533 404.925 298.201C404.925 404.81 314.644 491.232 203.222 491.232 91.816 491.232 1.511 404.81 1.511 298.201L1.511 1.533Z" id="path4629" stroke="#010202" stroke-width="3.048" fill="none" clip-path="url(#SVGID_2_)"/></g></g></g></g></g></g></g></g></g></g></g><g id="g10429" display="none" transform="matrix(1 0 0 1 0 -0.014)"><g id="g10369"><g id="g10367"><g id="g10365"><g id="g10363"><path d="M203.086 1.565 404.925 1.565 404.925 298.233C404.925 404.827 314.644 491.28 203.222 491.28 91.816 491.28 1.511 404.827 1.511 298.233L1.511 1.565Z" id="path10361" fill="#FFFFFF"/></g></g></g></g><g id="g10379"><g id="g10377"><g id="g10375"><g id="g10373"><path d="M274.115 1.748 274.115 479.007C350.279 451.623 404.529 381.469 404.92 299.102L404.92 1.746Z" id="path10371" fill="#848484"/></g></g></g></g><g id="g10389"><g id="g10387"><g id="g10385"><g id="g10383"><path d="M1.52 1.756 1.52 298.233C1.52 383.694 59.551 456.155 139.95 481.546L139.95 1.757Z" id="path10381" fill="#666666"/></g></g></g></g><g id="g10399"><g id="g10397"><g id="g10395"><g id="g10393"><path d="M393.559 59.955 346.365 59.955 346.365 12.526 332.332 12.526 332.332 59.955 285.99 59.955 285.99 73.998 332.332 73.998 332.332 119.877 346.365 119.877 346.365 73.998 393.559 73.998Z" id="polygon10391" fill="#FFFFFF"/></g></g></g></g><g id="g10427"><g id="g10425"><g id="g10423"><g id="g10421"><g id="g10419"><g id="g10417"><g id="g10415"><g id="g10413"><g id="g10411"><g id="g10409"><defs id="defs10402"><rect x="0" y="0.014" width="406.457" height="492.734" id="rect5293"/></defs><clipPath id="clipPath5172"><use width="100%" height="100%" xlink:href="#SVGID_1_" id="use5170" overflow="visible"></use></clipPath><path d="M203.086 1.533 404.925 1.533 404.925 298.201C404.925 404.81 314.644 491.232 203.222 491.232 91.816 491.232 1.511 404.81 1.511 298.201L1.511 1.533Z" id="path10407" stroke="#010202" stroke-width="3.048" fill="none" clip-path="url(#SVGID_2_-7)"/></g></g></g></g></g></g></g></g></g></g></g></svg>