<svg width="512" height="512" viewBox="0 0 32 32" xmlns="http://www.w3.org/2000/svg" xmlns:xlink="http://www.w3.org/1999/xlink" id="svg196" xml:space="preserve" overflow="hidden"><defs id="defs200"><pattern width="10.0765" height="8.87241" patternUnits="userSpaceOnUse" id="pattern24408" overflow="hidden" patternTransform="translate(493.961 8.56422)"><rect x="487.608" y="0.439701" width="22.7832" height="25.1214" id="rect20662" fill="url(#pattern20652)" clip-path="url(#clipPath24404)" transform="translate(-493.961 -8.56422)"/></pattern><pattern width="22.7832" height="25.1214" patternUnits="userSpaceOnUse" id="pattern20652" overflow="hidden" patternTransform="translate(487.608 0.439701)"><g id="g19039-8" transform="matrix(1.70674 0 0 1.70674 -124.373 4.88126)"><ellipse cx="76.471" cy="-1.851" rx="0.863" ry="0.884" id="ellipse12225-7" stroke="#000000" stroke-width="0.25" fill="#191718"/><ellipse cx="82.25" cy="-1.851" rx="0.863" ry="0.884" id="ellipse12227-6" stroke="#000000" stroke-width="0.25" fill="#191718"/><ellipse cx="76.471" cy="10.849" rx="0.863" ry="0.885" id="ellipse12241-2" stroke="#000000" stroke-width="0.25" fill="#191718"/><ellipse cx="82.25" cy="10.849" rx="0.863" ry="0.885" id="ellipse12243-4" stroke="#000000" stroke-width="0.25" fill="#191718"/><ellipse cx="73.86" cy="4.499" rx="0.863" ry="0.885" id="ellipse12267-0" stroke="#000000" stroke-width="0.25" fill="#191718"/><ellipse cx="79.546" cy="4.499" rx="0.863" ry="0.885" id="ellipse12269-3" stroke="#000000" stroke-width="0.25" fill="#191718"/><ellipse cx="85.233" cy="4.499" rx="0.863" ry="0.885" id="ellipse12271-3" stroke="#000000" stroke-width="0.25" fill="#191718"/></g></pattern><clipPath id="clipPath24404"><rect x="493.961" y="8.56422" width="10.0765" height="8.87241" id="rect24406" stroke="#000000" stroke-width="0.0999445" fill="#191718"/></clipPath><pattern width="10.0765" height="8.87241" patternUnits="userSpaceOnUse" id="pattern2399" overflow="hidden" patternTransform="translate(493.961 8.56422)"><rect x="487.608" y="0.439701" width="22.7832" height="25.1214" id="rect2397" fill="url(#pattern20652)" clip-path="url(#clipPath24404)" transform="translate(-493.961 -8.56422)"/></pattern><pattern width="22.7832" height="25.1214" patternUnits="userSpaceOnUse" id="pattern2417" overflow="hidden" patternTransform="translate(487.608 0.439701)"><g id="g2415" transform="matrix(1.70674 0 0 1.70674 -124.373 4.88126)"><ellipse cx="76.471" cy="-1.851" rx="0.863" ry="0.884" id="ellipse2401" stroke="#000000" stroke-width="0.25" fill="#191718"/><ellipse cx="82.25" cy="-1.851" rx="0.863" ry="0.884" id="ellipse2403" stroke="#000000" stroke-width="0.25" fill="#191718"/><ellipse cx="76.471" cy="10.849" rx="0.863" ry="0.885" id="ellipse2405" stroke="#000000" stroke-width="0.25" fill="#191718"/><ellipse cx="82.25" cy="10.849" rx="0.863" ry="0.885" id="ellipse2407" stroke="#000000" stroke-width="0.25" fill="#191718"/><ellipse cx="73.86" cy="4.499" rx="0.863" ry="0.885" id="ellipse2409" stroke="#000000" stroke-width="0.25" fill="#191718"/><ellipse cx="79.546" cy="4.499" rx="0.863" ry="0.885" id="ellipse2411" stroke="#000000" stroke-width="0.25" fill="#191718"/><ellipse cx="85.233" cy="4.499" rx="0.863" ry="0.885" id="ellipse2413" stroke="#000000" stroke-width="0.25" fill="#191718"/></g></pattern><clipPath id="clipPath2421"><rect x="493.961" y="8.56422" width="10.0765" height="8.87241" id="rect2419" stroke="#000000" stroke-width="0.0999445" fill="#191718"/></clipPath><pattern width="10.0765" height="8.87241" patternUnits="userSpaceOnUse" id="pattern2425" overflow="hidden" patternTransform="translate(493.961 8.56422)"><rect x="487.608" y="0.439701" width="22.7832" height="25.1214" id="rect2423" fill="url(#pattern20652)" clip-path="url(#clipPath24404)" transform="translate(-493.961 -8.56422)"/></pattern><pattern width="22.7832" height="25.1214" patternUnits="userSpaceOnUse" id="pattern2443" overflow="hidden" patternTransform="translate(487.608 0.439701)"><g id="g2441" transform="matrix(1.70674 0 0 1.70674 -124.373 4.88126)"><ellipse cx="76.471" cy="-1.851" rx="0.863" ry="0.884" id="ellipse2427" stroke="#000000" stroke-width="0.25" fill="#191718"/><ellipse cx="82.25" cy="-1.851" rx="0.863" ry="0.884" id="ellipse2429" stroke="#000000" stroke-width="0.25" fill="#191718"/><ellipse cx="76.471" cy="10.849" rx="0.863" ry="0.885" id="ellipse2431" stroke="#000000" stroke-width="0.25" fill="#191718"/><ellipse cx="82.25" cy="10.849" rx="0.863" ry="0.885" id="ellipse2433" stroke="#000000" stroke-width="0.25" fill="#191718"/><ellipse cx="73.86" cy="4.499" rx="0.863" ry="0.885" id="ellipse2435" stroke="#000000" stroke-width="0.25" fill="#191718"/><ellipse cx="79.546" cy="4.499" rx="0.863" ry="0.885" id="ellipse2437" stroke="#000000" stroke-width="0.25" fill="#191718"/><ellipse cx="85.233" cy="4.499" rx="0.863" ry="0.885" id="ellipse2439" stroke="#000000" stroke-width="0.25" fill="#191718"/></g></pattern><clipPath id="clipPath2447"><rect x="493.961" y="8.56422" width="10.0765" height="8.87241" id="rect2445" stroke="#000000" stroke-width="0.0999445" fill="#191718"/></clipPath><pattern width="10.0765" height="8.87241" patternUnits="userSpaceOnUse" id="pattern2451" overflow="hidden" patternTransform="translate(493.961 8.56422)"><rect x="487.608" y="0.439701" width="22.7832" height="25.1214" id="rect2449" fill="url(#pattern20652)" clip-path="url(#clipPath24404)" transform="translate(-493.961 -8.56422)"/></pattern><pattern width="22.7832" height="25.1214" patternUnits="userSpaceOnUse" id="pattern2469" overflow="hidden" patternTransform="translate(487.608 0.439701)"><g id="g2467" transform="matrix(1.70674 0 0 1.70674 -124.373 4.88126)"><ellipse cx="76.471" cy="-1.851" rx="0.863" ry="0.884" id="ellipse2453" stroke="#000000" stroke-width="0.25" fill="#191718"/><ellipse cx="82.25" cy="-1.851" rx="0.863" ry="0.884" id="ellipse2455" stroke="#000000" stroke-width="0.25" fill="#191718"/><ellipse cx="76.471" cy="10.849" rx="0.863" ry="0.885" id="ellipse2457" stroke="#000000" stroke-width="0.25" fill="#191718"/><ellipse cx="82.25" cy="10.849" rx="0.863" ry="0.885" id="ellipse2459" stroke="#000000" stroke-width="0.25" fill="#191718"/><ellipse cx="73.86" cy="4.499" rx="0.863" ry="0.885" id="ellipse2461" stroke="#000000" stroke-width="0.25" fill="#191718"/><ellipse cx="79.546" cy="4.499" rx="0.863" ry="0.885" id="ellipse2463" stroke="#000000" stroke-width="0.25" fill="#191718"/><ellipse cx="85.233" cy="4.499" rx="0.863" ry="0.885" id="ellipse2465" stroke="#000000" stroke-width="0.25" fill="#191718"/></g></pattern><clipPath id="clipPath2473"><rect x="493.961" y="8.56422" width="10.0765" height="8.87241" id="rect2471" stroke="#000000" stroke-width="0.0999445" fill="#191718"/></clipPath><pattern width="10.0765" height="8.87241" patternUnits="userSpaceOnUse" id="pattern2477" overflow="hidden" patternTransform="translate(493.961 8.56422)"><rect x="487.608" y="0.439701" width="22.7832" height="25.1214" id="rect2475" fill="url(#pattern20652)" clip-path="url(#clipPath24404)" transform="translate(-493.961 -8.56422)"/></pattern><pattern width="22.7832" height="25.1214" patternUnits="userSpaceOnUse" id="pattern2495" overflow="hidden" patternTransform="translate(487.608 0.439701)"><g id="g2493" transform="matrix(1.70674 0 0 1.70674 -124.373 4.88126)"><ellipse cx="76.471" cy="-1.851" rx="0.863" ry="0.884" id="ellipse2479" stroke="#000000" stroke-width="0.25" fill="#191718"/><ellipse cx="82.25" cy="-1.851" rx="0.863" ry="0.884" id="ellipse2481" stroke="#000000" stroke-width="0.25" fill="#191718"/><ellipse cx="76.471" cy="10.849" rx="0.863" ry="0.885" id="ellipse2483" stroke="#000000" stroke-width="0.25" fill="#191718"/><ellipse cx="82.25" cy="10.849" rx="0.863" ry="0.885" id="ellipse2485" stroke="#000000" stroke-width="0.25" fill="#191718"/><ellipse cx="73.86" cy="4.499" rx="0.863" ry="0.885" id="ellipse2487" stroke="#000000" stroke-width="0.25" fill="#191718"/><ellipse cx="79.546" cy="4.499" rx="0.863" ry="0.885" id="ellipse2489" stroke="#000000" stroke-width="0.25" fill="#191718"/><ellipse cx="85.233" cy="4.499" rx="0.863" ry="0.885" id="ellipse2491" stroke="#000000" stroke-width="0.25" fill="#191718"/></g></pattern><clipPath id="clipPath2499"><rect x="493.961" y="8.56422" width="10.0765" height="8.87241" id="rect2497" stroke="#000000" stroke-width="0.0999445" fill="#191718"/></clipPath><pattern width="10.0765" height="8.87241" patternUnits="userSpaceOnUse" id="pattern2503" overflow="hidden" patternTransform="translate(493.961 8.56422)"><rect x="487.608" y="0.439701" width="22.7832" height="25.1214" id="rect2501" fill="url(#pattern20652)" clip-path="url(#clipPath24404)" transform="translate(-493.961 -8.56422)"/></pattern><pattern width="22.7832" height="25.1214" patternUnits="userSpaceOnUse" id="pattern2521" overflow="hidden" patternTransform="translate(487.608 0.439701)"><g id="g2519" transform="matrix(1.70674 0 0 1.70674 -124.373 4.88126)"><ellipse cx="76.471" cy="-1.851" rx="0.863" ry="0.884" id="ellipse2505" stroke="#000000" stroke-width="0.25" fill="#191718"/><ellipse cx="82.25" cy="-1.851" rx="0.863" ry="0.884" id="ellipse2507" stroke="#000000" stroke-width="0.25" fill="#191718"/><ellipse cx="76.471" cy="10.849" rx="0.863" ry="0.885" id="ellipse2509" stroke="#000000" stroke-width="0.25" fill="#191718"/><ellipse cx="82.25" cy="10.849" rx="0.863" ry="0.885" id="ellipse2511" stroke="#000000" stroke-width="0.25" fill="#191718"/><ellipse cx="73.86" cy="4.499" rx="0.863" ry="0.885" id="ellipse2513" stroke="#000000" stroke-width="0.25" fill="#191718"/><ellipse cx="79.546" cy="4.499" rx="0.863" ry="0.885" id="ellipse2515" stroke="#000000" stroke-width="0.25" fill="#191718"/><ellipse cx="85.233" cy="4.499" rx="0.863" ry="0.885" id="ellipse2517" stroke="#000000" stroke-width="0.25" fill="#191718"/></g></pattern><clipPath id="clipPath2525"><rect x="493.961" y="8.56422" width="10.0765" height="8.87241" id="rect2523" stroke="#000000" stroke-width="0.0999445" fill="#191718"/></clipPath><pattern width="10.0765" height="8.87241" patternUnits="userSpaceOnUse" id="pattern2529" overflow="hidden" patternTransform="translate(493.961 8.56422)"><rect x="487.608" y="0.439701" width="22.7832" height="25.1214" id="rect2527" fill="url(#pattern20652)" clip-path="url(#clipPath24404)" transform="translate(-493.961 -8.56422)"/></pattern><pattern width="22.7832" height="25.1214" patternUnits="userSpaceOnUse" id="pattern2547" overflow="hidden" patternTransform="translate(487.608 0.439701)"><g id="g2545" transform="matrix(1.70674 0 0 1.70674 -124.373 4.88126)"><ellipse cx="76.471" cy="-1.851" rx="0.863" ry="0.884" id="ellipse2531" stroke="#000000" stroke-width="0.25" fill="#191718"/><ellipse cx="82.25" cy="-1.851" rx="0.863" ry="0.884" id="ellipse2533" stroke="#000000" stroke-width="0.25" fill="#191718"/><ellipse cx="76.471" cy="10.849" rx="0.863" ry="0.885" id="ellipse2535" stroke="#000000" stroke-width="0.25" fill="#191718"/><ellipse cx="82.25" cy="10.849" rx="0.863" ry="0.885" id="ellipse2537" stroke="#000000" stroke-width="0.25" fill="#191718"/><ellipse cx="73.86" cy="4.499" rx="0.863" ry="0.885" id="ellipse2539" stroke="#000000" stroke-width="0.25" fill="#191718"/><ellipse cx="79.546" cy="4.499" rx="0.863" ry="0.885" id="ellipse2541" stroke="#000000" stroke-width="0.25" fill="#191718"/><ellipse cx="85.233" cy="4.499" rx="0.863" ry="0.885" id="ellipse2543" stroke="#000000" stroke-width="0.25" fill="#191718"/></g></pattern><clipPath id="clipPath2551"><rect x="493.961" y="8.56422" width="10.0765" height="8.87241" id="rect2549" stroke="#000000" stroke-width="0.0999445" fill="#191718"/></clipPath><pattern width="10.0765" height="8.87241" patternUnits="userSpaceOnUse" id="pattern2555" overflow="hidden" patternTransform="translate(493.961 8.56422)"><rect x="487.608" y="0.439701" width="22.7832" height="25.1214" id="rect2553" fill="url(#pattern20652)" clip-path="url(#clipPath24404)" transform="translate(-493.961 -8.56422)"/></pattern><pattern width="22.7832" height="25.1214" patternUnits="userSpaceOnUse" id="pattern2573" overflow="hidden" patternTransform="translate(487.608 0.439701)"><g id="g2571" transform="matrix(1.70674 0 0 1.70674 -124.373 4.88126)"><ellipse cx="76.471" cy="-1.851" rx="0.863" ry="0.884" id="ellipse2557" stroke="#000000" stroke-width="0.25" fill="#191718"/><ellipse cx="82.25" cy="-1.851" rx="0.863" ry="0.884" id="ellipse2559" stroke="#000000" stroke-width="0.25" fill="#191718"/><ellipse cx="76.471" cy="10.849" rx="0.863" ry="0.885" id="ellipse2561" stroke="#000000" stroke-width="0.25" fill="#191718"/><ellipse cx="82.25" cy="10.849" rx="0.863" ry="0.885" id="ellipse2563" stroke="#000000" stroke-width="0.25" fill="#191718"/><ellipse cx="73.86" cy="4.499" rx="0.863" ry="0.885" id="ellipse2565" stroke="#000000" stroke-width="0.25" fill="#191718"/><ellipse cx="79.546" cy="4.499" rx="0.863" ry="0.885" id="ellipse2567" stroke="#000000" stroke-width="0.25" fill="#191718"/><ellipse cx="85.233" cy="4.499" rx="0.863" ry="0.885" id="ellipse2569" stroke="#000000" stroke-width="0.25" fill="#191718"/></g></pattern><clipPath id="clipPath2577"><rect x="493.961" y="8.56422" width="10.0765" height="8.87241" id="rect2575" stroke="#000000" stroke-width="0.0999445" fill="#191718"/></clipPath><pattern width="10.0765" height="8.87241" patternUnits="userSpaceOnUse" id="pattern2581" overflow="hidden" patternTransform="translate(493.961 8.56422)"><rect x="487.608" y="0.439701" width="22.7832" height="25.1214" id="rect2579" fill="url(#pattern20652)" clip-path="url(#clipPath24404)" transform="translate(-493.961 -8.56422)"/></pattern><pattern width="22.7832" height="25.1214" patternUnits="userSpaceOnUse" id="pattern2599" overflow="hidden" patternTransform="translate(487.608 0.439701)"><g id="g2597" transform="matrix(1.70674 0 0 1.70674 -124.373 4.88126)"><ellipse cx="76.471" cy="-1.851" rx="0.863" ry="0.884" id="ellipse2583" stroke="#000000" stroke-width="0.25" fill="#191718"/><ellipse cx="82.25" cy="-1.851" rx="0.863" ry="0.884" id="ellipse2585" stroke="#000000" stroke-width="0.25" fill="#191718"/><ellipse cx="76.471" cy="10.849" rx="0.863" ry="0.885" id="ellipse2587" stroke="#000000" stroke-width="0.25" fill="#191718"/><ellipse cx="82.25" cy="10.849" rx="0.863" ry="0.885" id="ellipse2589" stroke="#000000" stroke-width="0.25" fill="#191718"/><ellipse cx="73.86" cy="4.499" rx="0.863" ry="0.885" id="ellipse2591" stroke="#000000" stroke-width="0.25" fill="#191718"/><ellipse cx="79.546" cy="4.499" rx="0.863" ry="0.885" id="ellipse2593" stroke="#000000" stroke-width="0.25" fill="#191718"/><ellipse cx="85.233" cy="4.499" rx="0.863" ry="0.885" id="ellipse2595" stroke="#000000" stroke-width="0.25" fill="#191718"/></g></pattern><clipPath id="clipPath2603"><rect x="493.961" y="8.56422" width="10.0765" height="8.87241" id="rect2601" stroke="#000000" stroke-width="0.0999445" fill="#191718"/></clipPath><pattern width="10.0765" height="8.87241" patternUnits="userSpaceOnUse" id="pattern2607" overflow="hidden" patternTransform="translate(493.961 8.56422)"><rect x="487.608" y="0.439701" width="22.7832" height="25.1214" id="rect2605" fill="url(#pattern20652)" clip-path="url(#clipPath24404)" transform="translate(-493.961 -8.56422)"/></pattern><pattern width="22.7832" height="25.1214" patternUnits="userSpaceOnUse" id="pattern2625" overflow="hidden" patternTransform="translate(487.608 0.439701)"><g id="g2623" transform="matrix(1.70674 0 0 1.70674 -124.373 4.88126)"><ellipse cx="76.471" cy="-1.851" rx="0.863" ry="0.884" id="ellipse2609" stroke="#000000" stroke-width="0.25" fill="#191718"/><ellipse cx="82.25" cy="-1.851" rx="0.863" ry="0.884" id="ellipse2611" stroke="#000000" stroke-width="0.25" fill="#191718"/><ellipse cx="76.471" cy="10.849" rx="0.863" ry="0.885" id="ellipse2613" stroke="#000000" stroke-width="0.25" fill="#191718"/><ellipse cx="82.25" cy="10.849" rx="0.863" ry="0.885" id="ellipse2615" stroke="#000000" stroke-width="0.25" fill="#191718"/><ellipse cx="73.86" cy="4.499" rx="0.863" ry="0.885" id="ellipse2617" stroke="#000000" stroke-width="0.25" fill="#191718"/><ellipse cx="79.546" cy="4.499" rx="0.863" ry="0.885" id="ellipse2619" stroke="#000000" stroke-width="0.25" fill="#191718"/><ellipse cx="85.233" cy="4.499" rx="0.863" ry="0.885" id="ellipse2621" stroke="#000000" stroke-width="0.25" fill="#191718"/></g></pattern><clipPath id="clipPath2629"><rect x="493.961" y="8.56422" width="10.0765" height="8.87241" id="rect2627" stroke="#000000" stroke-width="0.0999445" fill="#191718"/></clipPath><pattern width="10.0765" height="8.87241" patternUnits="userSpaceOnUse" id="pattern2633" overflow="hidden" patternTransform="translate(493.961 8.56422)"><rect x="487.608" y="0.439701" width="22.7832" height="25.1214" id="rect2631" fill="url(#pattern20652)" clip-path="url(#clipPath24404)" transform="translate(-493.961 -8.56422)"/></pattern><pattern width="22.7832" height="25.1214" patternUnits="userSpaceOnUse" id="pattern2651" overflow="hidden" patternTransform="translate(487.608 0.439701)"><g id="g2649" transform="matrix(1.70674 0 0 1.70674 -124.373 4.88126)"><ellipse cx="76.471" cy="-1.851" rx="0.863" ry="0.884" id="ellipse2635" stroke="#000000" stroke-width="0.25" fill="#191718"/><ellipse cx="82.25" cy="-1.851" rx="0.863" ry="0.884" id="ellipse2637" stroke="#000000" stroke-width="0.25" fill="#191718"/><ellipse cx="76.471" cy="10.849" rx="0.863" ry="0.885" id="ellipse2639" stroke="#000000" stroke-width="0.25" fill="#191718"/><ellipse cx="82.25" cy="10.849" rx="0.863" ry="0.885" id="ellipse2641" stroke="#000000" stroke-width="0.25" fill="#191718"/><ellipse cx="73.86" cy="4.499" rx="0.863" ry="0.885" id="ellipse2643" stroke="#000000" stroke-width="0.25" fill="#191718"/><ellipse cx="79.546" cy="4.499" rx="0.863" ry="0.885" id="ellipse2645" stroke="#000000" stroke-width="0.25" fill="#191718"/><ellipse cx="85.233" cy="4.499" rx="0.863" ry="0.885" id="ellipse2647" stroke="#000000" stroke-width="0.25" fill="#191718"/></g></pattern><clipPath id="clipPath2655"><rect x="493.961" y="8.56422" width="10.0765" height="8.87241" id="rect2653" stroke="#000000" stroke-width="0.0999445" fill="#191718"/></clipPath><pattern width="10.0765" height="8.87241" patternUnits="userSpaceOnUse" id="pattern2659" overflow="hidden" patternTransform="translate(493.961 8.56422)"><rect x="487.608" y="0.439701" width="22.7832" height="25.1214" id="rect2657" fill="url(#pattern20652)" clip-path="url(#clipPath24404)" transform="translate(-493.961 -8.56422)"/></pattern><pattern width="22.7832" height="25.1214" patternUnits="userSpaceOnUse" id="pattern2677" overflow="hidden" patternTransform="translate(487.608 0.439701)"><g id="g2675" transform="matrix(1.70674 0 0 1.70674 -124.373 4.88126)"><ellipse cx="76.471" cy="-1.851" rx="0.863" ry="0.884" id="ellipse2661" stroke="#000000" stroke-width="0.25" fill="#191718"/><ellipse cx="82.25" cy="-1.851" rx="0.863" ry="0.884" id="ellipse2663" stroke="#000000" stroke-width="0.25" fill="#191718"/><ellipse cx="76.471" cy="10.849" rx="0.863" ry="0.885" id="ellipse2665" stroke="#000000" stroke-width="0.25" fill="#191718"/><ellipse cx="82.25" cy="10.849" rx="0.863" ry="0.885" id="ellipse2667" stroke="#000000" stroke-width="0.25" fill="#191718"/><ellipse cx="73.86" cy="4.499" rx="0.863" ry="0.885" id="ellipse2669" stroke="#000000" stroke-width="0.25" fill="#191718"/><ellipse cx="79.546" cy="4.499" rx="0.863" ry="0.885" id="ellipse2671" stroke="#000000" stroke-width="0.25" fill="#191718"/><ellipse cx="85.233" cy="4.499" rx="0.863" ry="0.885" id="ellipse2673" stroke="#000000" stroke-width="0.25" fill="#191718"/></g></pattern><clipPath id="clipPath2681"><rect x="493.961" y="8.56422" width="10.0765" height="8.87241" id="rect2679" stroke="#000000" stroke-width="0.0999445" fill="#191718"/></clipPath><pattern width="10.0765" height="8.87241" patternUnits="userSpaceOnUse" id="pattern2685" overflow="hidden" patternTransform="translate(493.961 8.56422)"><rect x="487.608" y="0.439701" width="22.7832" height="25.1214" id="rect2683" fill="url(#pattern20652)" clip-path="url(#clipPath24404)" transform="translate(-493.961 -8.56422)"/></pattern><pattern width="22.7832" height="25.1214" patternUnits="userSpaceOnUse" id="pattern2703" overflow="hidden" patternTransform="translate(487.608 0.439701)"><g id="g2701" transform="matrix(1.70674 0 0 1.70674 -124.373 4.88126)"><ellipse cx="76.471" cy="-1.851" rx="0.863" ry="0.884" id="ellipse2687" stroke="#000000" stroke-width="0.25" fill="#191718"/><ellipse cx="82.25" cy="-1.851" rx="0.863" ry="0.884" id="ellipse2689" stroke="#000000" stroke-width="0.25" fill="#191718"/><ellipse cx="76.471" cy="10.849" rx="0.863" ry="0.885" id="ellipse2691" stroke="#000000" stroke-width="0.25" fill="#191718"/><ellipse cx="82.25" cy="10.849" rx="0.863" ry="0.885" id="ellipse2693" stroke="#000000" stroke-width="0.25" fill="#191718"/><ellipse cx="73.86" cy="4.499" rx="0.863" ry="0.885" id="ellipse2695" stroke="#000000" stroke-width="0.25" fill="#191718"/><ellipse cx="79.546" cy="4.499" rx="0.863" ry="0.885" id="ellipse2697" stroke="#000000" stroke-width="0.25" fill="#191718"/><ellipse cx="85.233" cy="4.499" rx="0.863" ry="0.885" id="ellipse2699" stroke="#000000" stroke-width="0.25" fill="#191718"/></g></pattern><clipPath id="clipPath2707"><rect x="493.961" y="8.56422" width="10.0765" height="8.87241" id="rect2705" stroke="#000000" stroke-width="0.0999445" fill="#191718"/></clipPath><pattern width="10.0765" height="8.87241" patternUnits="userSpaceOnUse" id="pattern2711" overflow="hidden" patternTransform="translate(493.961 8.56422)"><rect x="487.608" y="0.439701" width="22.7832" height="25.1214" id="rect2709" fill="url(#pattern20652)" clip-path="url(#clipPath24404)" transform="translate(-493.961 -8.56422)"/></pattern><pattern width="22.7832" height="25.1214" patternUnits="userSpaceOnUse" id="pattern2729" overflow="hidden" patternTransform="translate(487.608 0.439701)"><g id="g2727" transform="matrix(1.70674 0 0 1.70674 -124.373 4.88126)"><ellipse cx="76.471" cy="-1.851" rx="0.863" ry="0.884" id="ellipse2713" stroke="#000000" stroke-width="0.25" fill="#191718"/><ellipse cx="82.25" cy="-1.851" rx="0.863" ry="0.884" id="ellipse2715" stroke="#000000" stroke-width="0.25" fill="#191718"/><ellipse cx="76.471" cy="10.849" rx="0.863" ry="0.885" id="ellipse2717" stroke="#000000" stroke-width="0.25" fill="#191718"/><ellipse cx="82.25" cy="10.849" rx="0.863" ry="0.885" id="ellipse2719" stroke="#000000" stroke-width="0.25" fill="#191718"/><ellipse cx="73.86" cy="4.499" rx="0.863" ry="0.885" id="ellipse2721" stroke="#000000" stroke-width="0.25" fill="#191718"/><ellipse cx="79.546" cy="4.499" rx="0.863" ry="0.885" id="ellipse2723" stroke="#000000" stroke-width="0.25" fill="#191718"/><ellipse cx="85.233" cy="4.499" rx="0.863" ry="0.885" id="ellipse2725" stroke="#000000" stroke-width="0.25" fill="#191718"/></g></pattern><clipPath id="clipPath2733"><rect x="493.961" y="8.56422" width="10.0765" height="8.87241" id="rect2731" stroke="#000000" stroke-width="0.0999445" fill="#191718"/></clipPath><pattern width="10.0765" height="8.87241" patternUnits="userSpaceOnUse" id="pattern2737" overflow="hidden" patternTransform="translate(493.961 8.56422)"><rect x="487.608" y="0.439701" width="22.7832" height="25.1214" id="rect2735" fill="url(#pattern20652)" clip-path="url(#clipPath24404)" transform="translate(-493.961 -8.56422)"/></pattern><pattern width="22.7832" height="25.1214" patternUnits="userSpaceOnUse" id="pattern2755" overflow="hidden" patternTransform="translate(487.608 0.439701)"><g id="g2753" transform="matrix(1.70674 0 0 1.70674 -124.373 4.88126)"><ellipse cx="76.471" cy="-1.851" rx="0.863" ry="0.884" id="ellipse2739" stroke="#000000" stroke-width="0.25" fill="#191718"/><ellipse cx="82.25" cy="-1.851" rx="0.863" ry="0.884" id="ellipse2741" stroke="#000000" stroke-width="0.25" fill="#191718"/><ellipse cx="76.471" cy="10.849" rx="0.863" ry="0.885" id="ellipse2743" stroke="#000000" stroke-width="0.25" fill="#191718"/><ellipse cx="82.25" cy="10.849" rx="0.863" ry="0.885" id="ellipse2745" stroke="#000000" stroke-width="0.25" fill="#191718"/><ellipse cx="73.86" cy="4.499" rx="0.863" ry="0.885" id="ellipse2747" stroke="#000000" stroke-width="0.25" fill="#191718"/><ellipse cx="79.546" cy="4.499" rx="0.863" ry="0.885" id="ellipse2749" stroke="#000000" stroke-width="0.25" fill="#191718"/><ellipse cx="85.233" cy="4.499" rx="0.863" ry="0.885" id="ellipse2751" stroke="#000000" stroke-width="0.25" fill="#191718"/></g></pattern><clipPath id="clipPath2759"><rect x="493.961" y="8.56422" width="10.0765" height="8.87241" id="rect2757" stroke="#000000" stroke-width="0.0999445" fill="#191718"/></clipPath><defs id="defs163"><rect x="-175.626" y="-214.155" width="406.539" height="492.824" id="SVGID_7_"/></defs><clipPath id="SVGID_8_"><use width="406.539" height="492.824" xlink:href="#SVGID_7_" id="use167" overflow="visible"></use></clipPath><pattern width="53.5261" height="53.5261" patternUnits="userSpaceOnUse" id="pattern2876" overflow="hidden" patternTransform="translate(628.34 83.1343)"><rect x="2.5" y="2.5" width="48.5261" height="48.5261" id="rect900" stroke="#000000" stroke-width="5" fill="none"/></pattern><filter id="filter2511" color-interpolation-filters="sRGB" x="0" y="0" width="1" height="1" filterUnits="objectBoundingBox" primitiveUnits="userSpaceOnUse"><feColorMatrix type="matrix" values="1 0 0 0 0 0 1 0 0 0 0 0 1 0 0 0 0 0 1 0 "/></filter><filter id="filter2515" color-interpolation-filters="sRGB" x="-0.00373795" y="-0.00311224" width="1.00744" height="1.00622" filterUnits="objectBoundingBox" primitiveUnits="userSpaceOnUse"><feColorMatrix type="matrix" values="1 0 0 0 0 0 1 0 0 0 0 0 1 0 0 0 0 0 1 0 "/></filter><filter id="filter2519" color-interpolation-filters="sRGB" x="-0.00377692" y="-0.00311164" width="1.00755" height="1.00622" filterUnits="objectBoundingBox" primitiveUnits="userSpaceOnUse"><feColorMatrix type="matrix" values="1 0 0 0 0 0 1 0 0 0 0 0 1 0 0 0 0 0 1 0 "/></filter><filter id="filter2523" color-interpolation-filters="sRGB" x="-0.00377465" y="-0.00310939" width="1.00755" height="1.00621" filterUnits="objectBoundingBox" primitiveUnits="userSpaceOnUse"><feColorMatrix type="matrix" values="1 0 0 0 0 0 1 0 0 0 0 0 1 0 0 0 0 0 1 0 "/></filter><filter id="filter2527" color-interpolation-filters="sRGB" x="-0.00374553" y="-0.0031016" width="1.00752" height="1.0061" filterUnits="objectBoundingBox" primitiveUnits="userSpaceOnUse"><feColorMatrix type="matrix" values="1 0 0 0 0 0 1 0 0 0 0 0 1 0 0 0 0 0 1 0 "/></filter><filter id="filter2531" color-interpolation-filters="sRGB" x="-0.00377922" y="-0.0031132" width="1.00756" height="1.00622" filterUnits="objectBoundingBox" primitiveUnits="userSpaceOnUse"><feColorMatrix type="matrix" values="1 0 0 0 0 0 1 0 0 0 0 0 1 0 0 0 0 0 1 0 "/></filter><filter id="filter2535" color-interpolation-filters="sRGB" x="-0.00249169" y="-0.00197628" width="1.00498" height="1.00395" filterUnits="objectBoundingBox" primitiveUnits="userSpaceOnUse"><feColorMatrix type="matrix" values="1 0 0 0 0 0 1 0 0 0 0 0 1 0 0 0 0 0 1 0 "/></filter><rect x="-175.626" y="-214.155" width="406.539" height="492.824" id="rect7321"/><rect x="0" y="0.014" width="406.457" height="492.734" id="SVGID_1_"/><rect x="-175.931" y="-213.741" width="406.316" height="492.574" id="SVGID_1_-1"/><rect x="-175.931" y="-213.741" width="406.316" height="492.574" id="SVGID_3_"/></defs><path d="M0 0 32 0 32 32 0 32Z" id="path192" stroke-width="0.125" fill="#FF0000" filter="url(#filter2511)"/><path d="M13.8822 6 19.8822 6 19.8822 13 26.8822 13 26.8822 19 19.8822 19 19.8822 26 13.8822 26 13.8822 19 6.88218 19 6.88218 13 13.8822 13Z" id="path194" fill="#FFFFFF" filter="url(#filter2511)"/></svg>