<svg width="78.0757" height="54.8858" xmlns="http://www.w3.org/2000/svg" xmlns:xlink="http://www.w3.org/1999/xlink" id="svg3075" overflow="hidden"><defs id="defs3079"></defs><path d="M1.82567 54.2717C-4.12023 50.7649 5.24113 39.8783 18.5844 34.7825 22.2056 33.3996 23.5873 32.0941 26.0517 27.7274 29.6962 21.2697 29.7519 20.8498 26.6984 22.8505 23.1487 25.1763 18.8383 26.1652 16.3164 25.2323 14.5748 24.5881 14.0757 23.6167 14.0757 20.8712 14.0757 15.84 19.7786 10.3353 27.5105 7.9033 32.4966 6.33498 35.3968 6.15742 47.4602 6.6819 64.1757 7.40863 68.8464 6.66158 74.129 2.41638 76.2997 0.671973 78.0757-0.362505 78.0757 0.11754 78.0757 1.74027 73.578 5.22895 68.5632 7.49607 63.9383 9.5869 62.36 9.73283 46.8587 9.50289 31.5915 9.27643 29.7034 9.44354 25.0857 11.43 16.752 15.0151 12.0783 22.5486 17.3647 23.8754 20.5222 24.6679 23.8525 23.2253 32.7928 17.1924L40.4711 12.0112 36.3816 16.9251C32.1176 22.0485 27.4521 30.339 28.8328 30.339 29.2716 30.339 30.6659 29.6139 31.9311 28.7277L34.2316 27.1164 33.5401 31.7277C33.0814 34.7861 33.2117 36.339 33.9269 36.339 35.4279 36.339 37.0757 32.9718 37.0757 29.9047 37.0757 28.2907 37.6321 27.339 38.5757 27.339 39.4007 27.339 40.0757 28.014 40.0757 28.839 40.0757 31.5936 42.5978 30.3818 44.5983 26.6661 47.4734 21.3258 56.1325 12.583 59.3234 11.7987 70.0954 9.1509 64.9389 19.9861 51.7587 27.6942 46.0433 31.0367 44.9928 32.1447 42.784 37.1594 38.4177 47.0727 38.1071 51.3696 41.6583 52.7323 47.4003 54.9357 59.3338 40.2878 54.837 36.5558 52.7135 34.7935 47.7708 38.3568 45.2363 43.4771 44.0488 45.8761 43.0769 47.0291 43.0765 46.0393 43.0745 41.2917 49.2981 34.339 53.55 34.339 57.022 34.339 58.4416 38.5273 56.5247 43.1152 52.5802 52.5558 41.6033 57.7857 37.6324 52.1165 35.458 49.0121 35.6778 46.1747 38.6723 38.6895 41.2659 32.2066 41.1716 29.0638 38.4968 32.8405 36.1962 36.089 32.9324 39.339 31.9707 39.339 31.4784 39.339 31.0757 37.539 31.0757 35.339 31.0757 29.0578 28.68 30.164 24.5786 38.339 20.4976 46.4732 18.402 49.0685 13.7603 51.7371 8.62564 54.6891 4.14631 55.6404 1.82567 54.2717ZM9.87533 51.934C11.3605 51.1612 13.5273 49.4737 14.6904 48.184 17.538 45.0262 22.4515 36.3815 21.7803 35.7102 20.1741 34.1041 5.47834 43.2686 2.58904 47.6782-0.570654 52.5005 3.83772 55.0754 9.87533 51.934ZM55.0063 23.7319C58.3771 21.198 61.8083 17.823 62.631 16.2319 64.0903 13.4101 64.065 13.339 61.6013 13.339 60.015 13.339 57.6776 14.7371 55.3166 17.0981 51.2671 21.1475 46.5929 28.339 48.0103 28.339 48.4873 28.339 51.6354 26.2658 55.0063 23.7319ZM60.283 53.0887C58.8006 51.3026 60.4201 48.8734 62.5486 49.6902 64.3449 50.3795 64.2937 53.4342 62.4757 54.0394 61.8708 54.2408 60.884 53.813 60.283 53.0887ZM64.0757 45.71C64.0757 45.364 65.1478 42.1015 66.4582 38.46 67.7686 34.8184 69.3739 29.2593 70.0255 26.1064 71.2351 20.2533 72.5195 18.3828 74.1851 20.0484 74.7654 20.6287 74.3093 23.6129 72.9832 27.9113 70.173 37.0207 64.0757 49.2042 64.0757 45.71Z" id="path3089" fill="#10080B"/></svg>