<svg width="406.794" height="493.177" viewBox="-176.752 -214.492 406.794 493.177" xmlns="http://www.w3.org/2000/svg" xmlns:xlink="http://www.w3.org/1999/xlink" id="Ebene_1" xml:space="preserve" overflow="hidden"><defs id="defs5576"></defs><g id="g5571"><path d="M26.506-212.967 228.518-212.967 228.518 83.958C228.518 190.661 138.127 277.161 26.651 277.161Z" id="path5503" fill="#E8423F"/><path d="M26.651 277.163 26.651 277.163C-84.853 277.163-175.228 190.663-175.228 83.959L-175.228-212.967 26.506-212.967Z" id="path5505" fill="#FFFFFF"/><path d="M189.487-131.006 160.963-111.452 171.815-76.436 139.799-97.069 108.042-76.436 118.877-111.717 90.127-131.006 126.221-131.006 139.799-167.901 153.37-131.006Z" id="polygon5507" fill="#FFFFFF"/><path d="M189.487-131.006 160.963-111.452 171.815-76.436 139.799-97.069 108.042-76.436 118.877-111.717 90.127-131.006 126.221-131.006 139.799-167.901 153.37-131.006Z" id="polygon5509" stroke="#010202" stroke-width="3.048" fill="none"/><path d="M189.487-41.221 160.963-21.694 171.815 13.322 139.799-7.303 108.042 13.322 118.877-21.959 90.127-41.221 126.221-41.221 139.799-78.151 153.37-41.221Z" id="polygon5511" fill="#FFFFFF"/><path d="M189.487-41.221 160.963-21.694 171.815 13.322 139.799-7.303 108.042 13.322 118.877-21.959 90.127-41.221 126.221-41.221 139.799-78.151 153.37-41.221Z" id="polygon5513" stroke="#010202" stroke-width="3.048" fill="none"/><path d="M189.487 48.521 160.963 68.076 171.815 103.091 139.799 82.466 108.042 103.091 118.877 67.81 90.127 48.521 126.221 48.521 139.799 11.603 153.37 48.521Z" id="polygon5515" fill="#FFFFFF"/><path d="M189.487 48.521 160.963 68.076 171.815 103.091 139.799 82.466 108.042 103.091 118.877 67.81 90.127 48.521 126.221 48.521 139.799 11.603 153.37 48.521Z" id="polygon5517" stroke="#010202" stroke-width="3.048" fill="none"/><path d="M189.487 138.287 160.963 157.833 171.815 192.833 139.799 172.208 108.042 192.833 118.877 157.552 90.127 138.287 126.221 138.287 139.799 101.38 153.37 138.287Z" id="polygon5519" fill="#FFFFFF"/><path d="M189.487 138.287 160.963 157.833 171.815 192.833 139.799 172.208 108.042 192.833 118.877 157.552 90.127 138.287 126.221 138.287 139.799 101.38 153.37 138.287Z" id="polygon5521" stroke="#010202" stroke-width="3.048" fill="none"/><path d="M-36.806-131.006-65.302-111.452-54.447-76.436-86.47-97.069-118.228-76.436-107.373-111.717-136.15-131.006-100.052-131.006-86.47-167.901-72.9-131.006Z" id="polygon5523" fill="#E8423F"/><path d="M-36.806-131.006-65.302-111.452-54.447-76.436-86.47-97.069-118.228-76.436-107.373-111.717-136.15-131.006-100.052-131.006-86.47-167.901-72.9-131.006Z" id="polygon5525" stroke="#010202" stroke-width="3.048" fill="none"/><path d="M-36.806-41.221-65.302-21.694-54.447 13.322-86.47-7.303-118.228 13.322-107.373-21.959-136.15-41.221-100.052-41.221-86.47-78.151-72.9-41.221Z" id="polygon5527" fill="#E8423F"/><path d="M-36.806-41.221-65.302-21.694-54.447 13.322-86.47-7.303-118.228 13.322-107.373-21.959-136.15-41.221-100.052-41.221-86.47-78.151-72.9-41.221Z" id="polygon5529" stroke="#010202" stroke-width="3.048" fill="none"/><path d="M-36.806 48.521-65.302 68.076-54.447 103.091-86.47 82.466-118.228 103.091-107.373 67.81-136.15 48.521-100.052 48.521-86.47 11.603-72.9 48.521Z" id="polygon5531" fill="#E8423F"/><path d="M-36.806 48.521-65.302 68.076-54.447 103.091-86.47 82.466-118.228 103.091-107.373 67.81-136.15 48.521-100.052 48.521-86.47 11.603-72.9 48.521Z" id="polygon5533" stroke="#010202" stroke-width="3.048" fill="none"/><path d="M-36.806 138.287-65.302 157.833-54.447 192.833-86.47 172.208-118.228 192.833-107.373 157.552-136.15 138.287-100.052 138.287-86.47 101.38-72.9 138.287Z" id="polygon5535" fill="#E8423F"/><path d="M-36.806 138.287-65.302 157.833-54.447 192.833-86.47 172.208-118.228 192.833-107.373 157.552-136.15 138.287-100.052 138.287-86.47 101.38-72.9 138.287Z" id="polygon5537" stroke="#010202" stroke-width="3.048" fill="none"/><path d="M5.452-141.51-23.068-161.053 13.042-161.053 26.588-197.694 26.588-126.862-5.431-106.495Z" id="polygon5539" fill="#E8423F"/><path d="M76.276-160.772 47.502-141.51 58.635-106.221 26.588-126.862 26.588-197.694 40.159-160.772Z" id="polygon5541" fill="#FFFFFF"/><path d="M76.276-160.772 47.502-141.51 58.635-106.221 26.588-126.862-5.431-106.495 5.452-141.51-23.068-161.053 13.042-161.053 26.588-197.694 40.159-160.772Z" id="polygon5543" stroke="#010202" stroke-width="3.048" fill="none"/><path d="M5.452-51.756-23.068-71.295 13.042-71.295 26.588-107.936 26.588-37.1-5.431-16.741Z" id="polygon5545" fill="#E8423F"/><path d="M76.276-71.022 47.502-51.756 58.635-16.479 26.588-37.1 26.588-107.936 40.159-71.022Z" id="polygon5547" fill="#FFFFFF"/><path d="M76.276-71.022 47.502-51.756 58.635-16.479 26.588-37.1-5.431-16.741 5.452-51.756-23.068-71.295 13.042-71.295 26.588-107.936 40.159-71.022Z" id="polygon5549" stroke="#010202" stroke-width="3.048" fill="none"/><path d="M5.452 38.021-23.068 18.466 13.042 18.466 26.588-18.167 26.588 52.662-5.431 73.021Z" id="polygon5551" fill="#E8423F"/><path d="M76.276 18.748 47.502 38.021 58.635 73.287 26.588 52.662 26.588-18.167 40.159 18.748Z" id="polygon5553" fill="#FFFFFF"/><path d="M76.276 18.748 47.502 38.021 58.635 73.287 26.588 52.662-5.431 73.021 5.452 38.021-23.068 18.466 13.042 18.466 26.588-18.167 40.159 18.748Z" id="polygon5555" stroke="#010202" stroke-width="3.048" fill="none"/><path d="M5.452 127.779-23.068 108.224 13.042 108.224 26.588 71.568 26.588 142.435-5.431 162.794Z" id="polygon5557" fill="#E8423F"/><path d="M76.276 108.49 47.502 127.779 58.635 163.052 26.588 142.435 26.588 71.568 40.159 108.49Z" id="polygon5559" fill="#FFFFFF"/><path d="M76.276 108.49 47.502 127.779 58.635 163.052 26.588 142.435-5.431 162.794 5.452 127.779-23.068 108.224 13.042 108.224 26.588 71.568 40.159 108.49Z" id="polygon5561" stroke="#010202" stroke-width="3.048" fill="none"/><path d="M76.276 198.255 47.502 217.521 58.635 252.81 26.588 232.177 26.588 161.349 40.159 198.255Z" id="polygon5563" fill="#FFFFFF"/><path d="M5.452 217.521-23.068 197.974 13.042 197.974 26.588 161.349 26.588 232.177-5.431 252.551Z" id="polygon5565" fill="#E8423F"/><g id="g5569"><path d="M26.506-212.967 26.651 277.162M26.506-212.967 228.518-212.967 228.518 83.958C228.518 190.661 138.127 277.161 26.651 277.161-84.853 277.161-175.228 190.661-175.228 83.958L-175.228-212.968ZM26.588 161.349 40.158 198.255 76.275 198.255 47.486 217.521 58.634 252.801 26.587 232.176-5.433 252.551 5.442 217.521-23.07 197.974 13.039 197.974Z" id="path5567" stroke="#010202" stroke-width="3.048" fill="none"/></g></g><g id="g8867" display="none"><path d="M26.506-212.967 228.518-212.967 228.518 83.958C228.518 190.661 138.127 277.161 26.651 277.161Z" id="path8799" fill="#848484"/><path d="M26.651 277.163 26.651 277.163C-84.853 277.163-175.228 190.663-175.228 83.959L-175.228-212.967 26.506-212.967Z" id="path8801" fill="#FFFFFF"/><path d="M118.877-111.717 90.127-131.006 126.221-131.006 139.799-167.901 153.37-131.006 189.487-131.006 160.963-111.452 171.815-76.436 139.799-97.069 108.042-76.436Z" id="polygon8803" fill="#FFFFFF"/><path d="M118.877-111.717 90.127-131.006 126.221-131.006 139.799-167.901 153.37-131.006 189.487-131.006 160.963-111.452 171.815-76.436 139.799-97.069 108.042-76.436Z" id="polygon8805" stroke="#010202" stroke-width="3.048" fill="none"/><path d="M118.877-21.959 90.127-41.221 126.221-41.221 139.799-78.151 153.37-41.221 189.487-41.221 160.963-21.694 171.815 13.322 139.799-7.303 108.042 13.322Z" id="polygon8807" fill="#FFFFFF"/><path d="M118.877-21.959 90.127-41.221 126.221-41.221 139.799-78.151 153.37-41.221 189.487-41.221 160.963-21.694 171.815 13.322 139.799-7.303 108.042 13.322Z" id="polygon8809" stroke="#010202" stroke-width="3.048" fill="none"/><path d="M118.877 67.81 90.127 48.521 126.221 48.521 139.799 11.603 153.37 48.521 189.487 48.521 160.963 68.076 171.815 103.091 139.799 82.466 108.042 103.091Z" id="polygon8811" fill="#FFFFFF"/><path d="M118.877 67.81 90.127 48.521 126.221 48.521 139.799 11.603 153.37 48.521 189.487 48.521 160.963 68.076 171.815 103.091 139.799 82.466 108.042 103.091Z" id="polygon8813" stroke="#010202" stroke-width="3.048" fill="none"/><path d="M118.877 157.552 90.127 138.287 126.221 138.287 139.799 101.38 153.37 138.287 189.487 138.287 160.963 157.833 171.815 192.833 139.799 172.208 108.042 192.833Z" id="polygon8815" fill="#FFFFFF"/><path d="M118.877 157.552 90.127 138.287 126.221 138.287 139.799 101.38 153.37 138.287 189.487 138.287 160.963 157.833 171.815 192.833 139.799 172.208 108.042 192.833Z" id="polygon8817" stroke="#010202" stroke-width="3.048" fill="none"/><path d="M-107.373-111.717-136.15-131.006-100.052-131.006-86.47-167.901-72.9-131.006-36.806-131.006-65.302-111.452-54.447-76.436-86.47-97.069-118.228-76.436Z" id="polygon8819" fill="#848484"/><path d="M-107.373-111.717-136.15-131.006-100.052-131.006-86.47-167.901-72.9-131.006-36.806-131.006-65.302-111.452-54.447-76.436-86.47-97.069-118.228-76.436Z" id="polygon8821" stroke="#010202" stroke-width="3.048" fill="none"/><path d="M-107.373-21.959-136.15-41.221-100.052-41.221-86.47-78.151-72.9-41.221-36.806-41.221-65.302-21.694-54.447 13.322-86.47-7.303-118.228 13.322Z" id="polygon8823" fill="#848484"/><path d="M-107.373-21.959-136.15-41.221-100.052-41.221-86.47-78.151-72.9-41.221-36.806-41.221-65.302-21.694-54.447 13.322-86.47-7.303-118.228 13.322Z" id="polygon8825" stroke="#010202" stroke-width="3.048" fill="none"/><path d="M-107.373 67.81-136.15 48.521-100.052 48.521-86.47 11.603-72.9 48.521-36.806 48.521-65.302 68.076-54.447 103.091-86.47 82.466-118.228 103.091Z" id="polygon8827" fill="#848484"/><path d="M-107.373 67.81-136.15 48.521-100.052 48.521-86.47 11.603-72.9 48.521-36.806 48.521-65.302 68.076-54.447 103.091-86.47 82.466-118.228 103.091Z" id="polygon8829" stroke="#010202" stroke-width="3.048" fill="none"/><path d="M-107.373 157.552-136.15 138.287-100.052 138.287-86.47 101.38-72.9 138.287-36.806 138.287-65.302 157.833-54.447 192.833-86.47 172.208-118.228 192.833Z" id="polygon8831" fill="#848484"/><path d="M-107.373 157.552-136.15 138.287-100.052 138.287-86.47 101.38-72.9 138.287-36.806 138.287-65.302 157.833-54.447 192.833-86.47 172.208-118.228 192.833Z" id="polygon8833" stroke="#010202" stroke-width="3.048" fill="none"/><path d="M-23.068-161.053 13.042-161.053 26.588-197.694 26.588-126.862-5.431-106.495 5.452-141.51Z" id="polygon8835" fill="#848484"/><path d="M47.502-141.51 58.635-106.221 26.588-126.862 26.588-197.694 40.159-160.772 76.276-160.772Z" id="polygon8837" fill="#FFFFFF"/><path d="M5.452-141.51-23.068-161.053 13.042-161.053 26.588-197.694 40.159-160.772 76.276-160.772 47.502-141.51 58.635-106.221 26.588-126.862-5.431-106.495Z" id="polygon8839" stroke="#010202" stroke-width="3.048" fill="none"/><path d="M-23.068-71.295 13.042-71.295 26.588-107.936 26.588-37.1-5.431-16.741 5.452-51.756Z" id="polygon8841" fill="#848484"/><path d="M47.502-51.756 58.635-16.479 26.588-37.1 26.588-107.936 40.159-71.022 76.276-71.022Z" id="polygon8843" fill="#FFFFFF"/><path d="M5.452-51.756-23.068-71.295 13.042-71.295 26.588-107.936 40.159-71.022 76.276-71.022 47.502-51.756 58.635-16.479 26.588-37.1-5.431-16.741Z" id="polygon8845" stroke="#010202" stroke-width="3.048" fill="none"/><path d="M-23.068 18.466 13.042 18.466 26.588-18.167 26.588 52.662-5.431 73.021 5.452 38.021Z" id="polygon8847" fill="#848484"/><path d="M47.502 38.021 58.635 73.287 26.588 52.662 26.588-18.167 40.159 18.748 76.276 18.748Z" id="polygon8849" fill="#FFFFFF"/><path d="M5.452 38.021-23.068 18.466 13.042 18.466 26.588-18.167 40.159 18.748 76.276 18.748 47.502 38.021 58.635 73.287 26.588 52.662-5.431 73.021Z" id="polygon8851" stroke="#010202" stroke-width="3.048" fill="none"/><path d="M-23.068 108.224 13.042 108.224 26.588 71.568 26.588 142.435-5.431 162.794 5.452 127.779Z" id="polygon8853" fill="#848484"/><path d="M47.502 127.779 58.635 163.052 26.588 142.435 26.588 71.568 40.159 108.49 76.276 108.49Z" id="polygon8855" fill="#FFFFFF"/><path d="M5.452 127.779-23.068 108.224 13.042 108.224 26.588 71.568 40.159 108.49 76.276 108.49 47.502 127.779 58.635 163.052 26.588 142.435-5.431 162.794Z" id="polygon8857" stroke="#010202" stroke-width="3.048" fill="none"/><path d="M47.502 217.521 58.635 252.81 26.588 232.177 26.588 161.349 40.159 198.255 76.276 198.255Z" id="polygon8859" fill="#FFFFFF"/><path d="M-23.068 197.974 13.042 197.974 26.588 161.349 26.588 232.177-5.431 252.551 5.452 217.521Z" id="polygon8861" fill="#848484"/><g id="g8865"><path d="M26.506-212.967 26.651 277.162M26.506-212.967 228.518-212.967 228.518 83.958C228.518 190.661 138.127 277.161 26.651 277.161-84.853 277.161-175.228 190.661-175.228 83.958L-175.228-212.968ZM26.588 161.349 40.158 198.255 76.275 198.255 47.486 217.521 58.634 252.801 26.587 232.176-5.433 252.551 5.442 217.521-23.07 197.974 13.039 197.974Z" id="path8863" stroke="#010202" stroke-width="3.048" fill="none"/></g></g></svg>