<svg width="605" height="762" xmlns="http://www.w3.org/2000/svg" xmlns:xlink="http://www.w3.org/1999/xlink" id="svg6" overflow="hidden"><defs id="defs10"><pattern xlink:href="#pattern2876" id="pattern5364" overflow="hidden" patternTransform="translate(649.869 92.5536)"></pattern><pattern width="53.5261" height="53.5261" patternUnits="userSpaceOnUse" id="pattern2876" overflow="hidden" patternTransform="translate(628.34 83.1343)"><rect x="2.5" y="2.5" width="48.5261" height="48.5261" id="rect900" stroke="#000000" stroke-width="5" fill="none"/></pattern></defs><g id="g1008" display="none"><path d="M1.5 1.5 1.5 459.5C1.5 625.738 136.262 760.5 302.5 760.5 468.738 760.5 603.5 625.738 603.5 459.5L603.5 1.5Z" id="path2" stroke="#000000" stroke-width="3" fill="#FFFFFF"/><path d="M2 2 2 365 603 365 603 2" id="path4" fill="url(#pattern5364)"/><rect x="627.592" y="82.3871" width="37.5276" height="37.5276" id="rect2879" stroke="#000000" stroke-width="3.50554" fill="none" display="none"/></g><g id="g16414"><path d="M1.5 1.5 1.5 459.5C1.5 625.738 136.262 760.5 302.5 760.5 468.738 760.5 603.5 625.738 603.5 459.5L603.5 1.5Z" id="path16402" stroke="#000000" stroke-width="3" fill="#FFFFFF"/><path d="M2 2 2 365 603 365 603 2" id="path16404"/></g></svg>