<svg viewBox="0 0 559.71 754.19" xmlns="http://www.w3.org/2000/svg" xmlns:xlink="http://www.w3.org/1999/xlink" id="Calque_1" overflow="hidden"><defs></defs><path d="M369.36 581.69 372.25 588.04 372.5 593.64 372.19 596.32 371.25 598.4 368.45 601.98 363.64 605.42 354.03 609.32 338.36 612.47 321.64 613.74 303.27 612.51 287.62 610 271.82 605.88 255.08 597.88 256.08 596.79 272.08 585.33 287.66 578.21 297.66 574.94 317 570.8 329.47 569.94 342.63 570.34 353 572 363.08 576 369.33 581.7M169.25 470.43 168.91 458.24 170.27 443.67 174 429.1 180.09 416.56 184.16 410.8 193.65 401.66 205.84 394.54 206.84 394.54 207.52 431.13 207.52 489.41 205.15 520.92 202.77 534.81 200.06 545.65 199.72 545.99 196 540.91 179.4 507.7 173.3 489.07 169.23 470.43M226.15 600.54 220.39 606.3 204.83 590 205.17 588.31 209.23 583.91 221.43 596.44 226.17 600.51M220.41 788.51 214.65 788.85 207.88 786.14 201.44 779.36 196.36 767.84 193.65 755.64 192 740.13 191.66 725.22 194 701.84 196.37 689.65 202.13 670.33 212.28 650 213.28 648.64 223.1 667.64 228.86 685.94 233 704.21 236 725.9 236.34 745.9 234.64 764.9 231.64 776.75 228.59 782.86 225.21 786.58 223.21 787.94 220.5 788.62M400 328.13 399 328.13 400 306.13 398 289.19 395.63 280.72 391.56 271.23 397.66 264.12 408.16 249.21 416.29 234.64 419 227.19 419.68 226.51 422.39 228.51 425.78 234.61 427.14 240.71 427.47 255.28 424 285.11 417.56 323.05 400 328.13M33.05 604.07 30.5 596 30.81 589.08 31.44 585.81 32.7 583.35 36.19 579.21 41.9 575.43 53 571.52 70.77 569.12 89.5 569.12 109.82 572.36 127 576.93 144.15 583.49 161.94 594.93 160.68 596.17 141.68 608.77 123.59 616.06 112.17 619.14 90.27 622.43 76.27 622.31 61.67 620.57 50.24 617.57 39.44 611.69 33.08 604.09M437.62 468.09 434.23 457.25 431.18 437.6 431.18 414.9 433.55 392.54 438.64 364.08 444.73 339.68 446.09 339.34 457.61 344.09 462.69 349.17 474.89 373.9 479.97 381.7 484.71 386.78 493.52 392.54 498.94 394.54 501.32 394.88 505.38 381.67 509.79 369.81 501 365.06 494.56 359.3 490.49 353.88 482.7 338.3 474.91 330.17 462.37 323.73 455.88 322 449.45 321.32 458.26 282.32 463.34 256.23 465.34 239.63 465.68 214.89 464 199.39 461 186.17 455.58 173.3 453.2 169.57 449.48 165.51 423.7 185.16 413.53 194.3 407.1 212.6 386.1 255.29 382.37 260.37 378.3 257 371.18 252.94 363.05 250.23 344.05 269.88 358 277.31 364.1 281.72 360.71 285.11 350.55 292.56 331.23 302.05 313.61 306.45 300.06 307.45 310.57 318.29 316.66 326.76 324.09 342 327.14 351.14 330.86 371.47 331.2 393.83 328.83 413.15 326.12 425.34 324.12 432.12 323.44 432.8 319.71 418.9 314.29 406.71 309.21 398.58 305.48 393.83 295 383.7 289.24 379.63 279.75 374.55 270.27 371.16 256.38 368.45 245.53 368.11 240.74 157 239.39 158 230.58 168.84 215.67 184.09 206.18 191.88 197.71 197.64 172.3 210.23 152 216 134 217 121.46 215 108.59 209.24 98.42 199.76 92 187.87 89 176 88.33 161.77 91.33 148.22 96.41 138.39 106.23 128.9 117.41 123.14 125.21 120.43 138.42 117.43 163.15 114.43 188.23 113 246.84 112.66 254.63 113.34 308.16 113.68 379.31 109.95 398 105.88 413.24 99.44 420 95 429.15 86.87 436.94 77.39 444.4 64.51 446.09 57.4 445.41 47.23 436.94 57.4 415.23 69.28 407.43 71.66 391.51 74 330.19 77.39 160.1 81.48 139.1 83.48 117.75 88.23 98.1 96.39 86.92 103.84 76.42 114.35 73 119.09 67.58 129.25 64.19 139.42 62.19 151.28 61.85 165.84 63.21 174.65 65.92 183.46 70 192.27 76.78 202.44 87.6 213.28 98.44 220.05 111 224.8 119.81 226.8 130.31 228.16 146.57 228.16 157.08 226.46 173 221.75 198.41 209.55 199.41 213.96 206.18 376.58 194.32 383 184.5 389.78 174 400 168.24 407.79 160.78 422.7 157.39 434.22 155.7 445 155.36 464.32 156.36 474.82 161.1 498.54 166.86 515.81 177.36 538.81 187.19 555.42 192.95 563.55 187.19 574.73 186.19 575.07 179.76 569.65 162.82 560.16 145.54 553.72 132.66 550.33 108.27 546.61 86.58 546 67.27 548.7 53.38 552.76 39.15 559.54 33.39 563.61 27 570 21.92 578.47 19.92 585.25 19.58 593.38 20.93 600.84 24.24 609 27 613.07 31.41 617.82 36.83 621.88 48.69 627.64 62.92 631.37 76.81 633.06 106.28 633.06 125.93 631.06 136.44 628.69 146.6 625.3 161.51 618.52 178.79 608.36 193.36 621.91 197.76 627.33 200.13 631.74 188.28 656.47 184.55 667.65 181.16 682.22 178.11 707.63 177.77 726.94 179.13 747.27 182.85 767.27 185.23 774.73 192.68 789.3 200.13 797.09 207.93 800.81 216.74 801.49 224.53 799.8 231.98 796.07 238.76 790.31 243.84 783.87 249.26 774.05 254.68 758.46 257.73 743.55 259.43 727.97 259.43 700.49 256.38 680.15 252.31 664.91 248.92 655.42 241.13 637.81 231.3 621.2 232.3 619.2 240.4 610 241.4 611 248.85 615.07 270.85 622.86 291.51 627.6 318.28 631.33 339.28 631.67 359.28 628.28 366.74 625.91 376.9 621.5 383.34 617.44 390.45 610.66 394.86 603.21 396.21 598.8 396.55 589.32 395.88 586.27 392.49 579.49 385.37 572.38 384.53 571.75 379.27 568.69 371.77 565.04 358 560.56 342.41 558.19 321 557.85 298 560.22 280.38 565 265.14 571.78 248.19 581.9 239.39 589.02 231.25 582.24 218.72 570 223.46 561.19 230.24 545 234.64 531.11 241.08 500.96 243.79 479.27 245.48 453.86 245.48 389.12 246.84 388.44 256.67 390.81 268.86 397.25 278.35 406.06 282.75 411.82 290.55 427.07 293.93 437.91 295.93 449.77 296.27 469.42 294 485 294.27 485.13 298.7 482.6 302.91 479.79 304.7 478.38 314.62 469.38 324.79 456.5 334.27 439.22 339.67 425 343.74 409.42 346.79 387.06 347.13 370.46 346.13 356.23 341.73 333.53 335.63 316.25 353.25 305.74 361.72 299.64 372.9 290.16 377.98 296.26 384.76 309.81 387.13 318.28 388.48 326.75 388.48 345.38 406.08 340 414.21 338 414.55 339 407.1 368.47 401.34 402.35 398.34 429.12 397.34 446.74 398 461 400 476.58 405.08 496.23 412.88 514.23 419.31 524.73 426.09 533.54 439.64 546.76 443.71 541.67 452.86 532.19 465.73 520.33 469.12 515.92 457.26 502.03 447.77 488.48 437.61 468.15" fill-rule="evenodd" transform="translate(-19.5 -47.26)"/><path d="M518.39 81.33 536.66 61.99 544.15 55.26 548.19 52.55 552.6 50.84 556.69 51.16 559.71 52.55 556.31 149.05 554.3 276.11 554.61 423.19 555.3 445.87 549.19 451.29 540.38 455.38 531.93 458.4 520.41 464.2 514.67 468.23 509.57 87.76 518.39 81.33" fill-rule="evenodd"/><path d="M551.27 533.3 556.69 529.59 558.33 488.2 552.91 491.98 523.12 505.84 519.4 508.23 514.67 512.96 513.29 553.27 521.41 546.85 551.27 533.3" fill-rule="evenodd"/></svg>